<svg width="80" height="62" viewBox="0 0 80 62" fill="none" xmlns="http://www.w3.org/2000/svg">
<circle cx="9.90388" cy="51.9537" r="8.90388" stroke="#FF6E00" stroke-width="2"/>
<circle cx="9.90388" cy="51.9537" r="4.00935" stroke="#FF6E00" stroke-width="2"/>
<circle cx="50.6426" cy="51.9537" r="4.00935" stroke="#FF6E00" stroke-width="2"/>
<circle cx="50.6426" cy="51.9537" r="8.90388" stroke="#FF6E00" stroke-width="2"/>
<path d="M21.4438 49.9507C18.9331 38.903 8.81992 39.7681 4.07715 41.5816V31.7256C4.07715 28.9642 6.31572 26.7256 9.07715 26.7256H16.4438C19.2053 26.7256 21.4438 28.9642 21.4438 31.7256V32.0487C21.4438 33.1532 22.3393 34.0487 23.4438 34.0487H55.5706C58.332 34.0487 60.5706 36.2872 60.5706 39.0487V45.3743C51.4861 34.546 39.6569 42.6445 38.8102 49.9507H21.4438Z" stroke="#FF6E00" stroke-width="2"/>
<path d="M57.0321 1C57.0321 0.447715 56.5844 0 56.0321 0C55.4798 0 55.0321 0.447715 55.0321 1H57.0321ZM78.8027 16.8118C79.355 16.8118 79.8027 16.3641 79.8027 15.8118C79.8027 15.2595 79.355 14.8118 78.8027 14.8118V16.8118ZM12.5962 26.2021V6H10.5962V26.2021H12.5962ZM16.5962 2H35.3022V0H16.5962V2ZM38.9646 4.39153L52.0215 34.1209L53.8526 33.3167L40.7958 3.58729L38.9646 4.39153ZM57.0321 33.7188V15.8118H55.0321V33.7188H57.0321ZM57.0321 15.8118V1H55.0321V15.8118H57.0321ZM56.0321 16.8118H78.8027V14.8118H56.0321V16.8118ZM35.3022 2C36.8894 2 38.3264 2.93837 38.9646 4.39153L40.7958 3.58729C39.8384 1.40755 37.6829 0 35.3022 0V2ZM12.5962 6C12.5962 3.79086 14.3871 2 16.5962 2V0C13.2825 0 10.5962 2.68629 10.5962 6H12.5962Z" fill="#FF6E00"/>
<path d="M18.8613 27.4486L16.3868 18.8458C15.9651 17.3795 16.8142 15.8493 18.2816 15.4313V15.4313C19.7297 15.0189 21.241 15.8442 21.6767 17.2854L25.0385 28.4039H30.7268C33.4882 28.4039 35.7268 30.6425 35.7268 33.4039V34.0025" stroke="#FF6E00" stroke-width="2"/>
<path d="M42.6856 18.9222C43.0687 18.5244 43.0568 17.8913 42.659 17.5082C42.2612 17.1251 41.6281 17.137 41.245 17.5348L42.6856 18.9222ZM35.29 23.7184C34.9069 24.1162 34.9188 24.7493 35.3166 25.1324C35.7144 25.5155 36.3474 25.5036 36.7305 25.1058L35.29 23.7184ZM41.245 17.5348L38.2675 20.6266L39.7081 22.014L42.6856 18.9222L41.245 17.5348ZM38.2675 20.6266L35.29 23.7184L36.7305 25.1058L39.7081 22.014L38.2675 20.6266ZM51.7638 33.3682L39.7142 20.633L38.2614 22.0076L50.311 34.7428L51.7638 33.3682Z" fill="#FF6E00"/>
</svg>
