<svg width="61" height="61" viewBox="0 0 61 61" fill="none" xmlns="http://www.w3.org/2000/svg">
<g clip-path="url(#clip0_1363_3514)">
<path d="M47.2371 48.9977L48.0231 45.0534C48.4359 42.9675 49.5442 41.0408 49.94 38.952C50.0248 38.5176 50.0663 38.0717 50.0644 37.6145C50.0632 36.6243 49.8567 35.6453 49.458 34.74C49.0594 33.8348 48.4773 33.0233 47.7492 32.3574C47.0211 31.6915 46.1629 31.186 45.2295 30.8731C44.2962 30.5603 43.3082 30.4469 42.3288 30.5404C41.3494 30.6339 40.4002 30.9321 39.5419 31.416C38.6836 31.8999 37.9352 32.5588 37.3444 33.3506C36.7536 34.1423 36.3335 35.0495 36.111 36.0141C35.8885 36.9786 35.8685 37.9793 36.0522 38.952C36.4481 41.0437 37.5564 42.9646 37.972 45.0534L38.7552 48.9977M47.2371 48.9977H38.7552M47.2371 48.9977L54.2969 50.893C55.5022 51.1629 56.5801 51.8384 57.3527 52.808C58.1252 53.7775 58.5463 54.9832 58.5464 56.226C58.5464 57.7343 57.3306 58.958 55.8322 58.958H30.1601C29.4402 58.958 28.7499 58.6702 28.2409 58.1578C27.7318 57.6455 27.4459 56.9506 27.4459 56.226C27.4459 53.6648 29.2129 51.4479 31.6953 50.893L38.7552 48.9977M44.4098 21.9626V19.1168C44.4098 11.0689 44.4098 7.04206 41.9246 4.54345C39.4422 2.04199 35.4415 2.04199 27.4459 2.04199H18.9639C10.9683 2.04199 6.9676 2.04199 4.48521 4.54345C2 7.04206 2 11.0689 2 19.1168V41.8832C2 49.9311 2 53.9579 4.48521 56.4566C6.9676 58.958 10.9683 58.958 18.9639 58.958" stroke="#FF6F00" stroke-width="2.3" stroke-linecap="round" stroke-linejoin="round"/>
<path d="M16.1363 21.0146C16.1363 21.0146 17.9034 21.0146 19.6705 24.808C19.6705 24.808 25.2827 15.323 30.2729 13.4248M13.309 36.1912H24.6183M13.309 44.7286H24.6183" stroke="#FF6F00" stroke-width="2.3" stroke-linecap="round" stroke-linejoin="round"/>
</g>
<defs>
<clipPath id="clip0_1363_3514">
<rect width="60.5464" height="60.916" fill="white" transform="translate(0 0.0419922)"/>
</clipPath>
</defs>
</svg>
