<svg width="79" height="61" viewBox="0 0 79 61" fill="none" xmlns="http://www.w3.org/2000/svg">
<path d="M65.901 19.0625V20.3125H67.151H75.0512C76.5843 20.3125 77.7508 21.5015 77.75 22.8743V22.875V28.9226C77.75 29.5883 77.4767 30.2354 76.9753 30.7193L71.3035 36.1936C69.4248 35.4279 67.3666 34.9699 65.176 34.9699C60.1708 34.9699 55.7399 37.2164 52.7988 40.6887H43.4507H42.2007V41.9387V42.6535C42.2007 43.3694 41.5866 44.0246 40.735 44.0246H39.8512H38.9289L38.6568 44.9059C38.3193 45.9992 37.8642 47.0578 37.2896 48.087L36.8204 48.9273L37.5129 49.5958L38.1375 50.1986C38.6887 50.7305 38.6887 51.5743 38.1375 52.1063L34.2973 55.8127C33.7213 56.3687 32.7693 56.3687 32.1933 55.8127L31.5687 55.2099L30.9217 54.5854L30.1238 55.0003C29.0531 55.5572 27.9504 55.9989 26.8099 56.3269L25.9054 56.5871V57.5282V58.3789C25.9054 59.0947 25.2913 59.75 24.4398 59.75H19.0084C18.1569 59.75 17.5428 59.0947 17.5428 58.3789V57.5271V56.5859L16.6383 56.3258C15.4978 55.9978 14.3951 55.556 13.3244 54.9991L12.5266 54.5842L11.8795 55.2087L11.2549 55.8115C10.6789 56.3675 9.72689 56.3675 9.15087 55.8115L5.31067 52.1051C4.75955 51.5731 4.75955 50.7293 5.31067 50.1974L5.93527 49.5946L6.62746 48.9265L6.15888 48.0863C5.58426 47.056 5.13018 45.9982 4.79115 44.9027L4.51868 44.0222H3.59702H2.71567C1.8641 44.0222 1.25 43.367 1.25 42.6512V37.409C1.25 36.6932 1.8641 36.0379 2.71567 36.0379H3.59826H4.52056L4.79263 35.1566C5.13019 34.0633 5.5852 33.0047 6.15984 31.9755L6.62903 31.1352L5.93651 30.4667L5.3119 29.8639C4.76078 29.332 4.76078 28.4882 5.3119 27.9562L9.1521 24.2498C9.6569 23.7626 10.4878 23.7143 11.0985 24.174L13.1002 25.6806V23.1752V5.71875C13.1002 3.29685 15.1561 1.25 17.7753 1.25L34.2483 1.25L34.2495 1.25C35.1745 1.24907 36.076 1.5111 36.8414 1.99888C37.6063 2.48638 38.1989 3.17589 38.552 3.97631L38.5532 3.9791L45.477 19.5698L45.8068 20.3125H46.6194H59.2509H60.5009V19.0625V14.2731C60.5009 11.0064 61.6949 7.84923 63.8406 5.35139L63.8408 5.35109C64.168 4.96995 64.7365 4.98267 65.0243 5.29335L65.0247 5.29384L67.6947 8.17347L67.6957 8.17447C67.9405 8.43795 67.9019 8.73339 67.7932 8.87102C66.5809 10.4055 65.901 12.3019 65.901 14.2731V19.0625ZM18.5003 19.0625V20.3125H19.7503H24.441H38.0243H39.9472L39.1667 18.5551L34.0872 7.11765L33.7573 6.375H32.9448H19.7503H18.5003V7.625V19.0625ZM55.5634 50.5156C55.5634 45.4571 59.8251 41.2813 65.176 41.2813C70.5269 41.2813 74.7887 45.4571 74.7887 50.5156C74.7887 55.5741 70.5269 59.75 65.176 59.75C59.8251 59.75 55.5634 55.5741 55.5634 50.5156ZM60.9635 50.5156C60.9635 52.8236 62.8947 54.625 65.176 54.625C67.4573 54.625 69.3886 52.8236 69.3886 50.5156C69.3886 48.2076 67.4573 46.4063 65.176 46.4063C62.8947 46.4063 60.9635 48.2077 60.9635 50.5156ZM10.6002 40.0313C10.6002 46.0266 15.6236 50.8125 21.7253 50.8125C27.8271 50.8125 32.8505 46.0266 32.8505 40.0313C32.8505 34.0359 27.8271 29.25 21.7253 29.25C15.6236 29.25 10.6002 34.0359 10.6002 40.0313Z" stroke="#FF6F00" stroke-width="2.5"/>
</svg>
