<svg width="61" height="61" viewBox="0 0 61 61" fill="none" xmlns="http://www.w3.org/2000/svg">
<path d="M42.7842 0.131966C37.7897 0.919468 33.4451 4.06948 31.1103 8.56779L30.4965 9.73712L29.967 9.18825C29.281 8.4962 28.6431 8.19791 27.8248 8.18598C27.0064 8.18598 26.5009 8.40075 25.7908 9.057L25.2132 9.59394L24.2865 9.21212L23.3478 8.84223V8.17405C23.3478 7.81609 23.2635 7.26722 23.1552 6.95699C22.9265 6.28881 22.1202 5.51324 21.4703 5.33426C20.8084 5.15528 15.862 5.16721 15.2362 5.34619C14.9353 5.44165 14.5262 5.71608 14.1892 6.03824C13.5874 6.63483 13.3588 7.25529 13.3588 8.29336V8.90189L12.5645 9.25985C12.1192 9.45075 11.71 9.6178 11.6378 9.6178C11.5776 9.6178 11.2527 9.36723 10.9277 9.06894C10.2177 8.41268 9.70015 8.18598 8.90585 8.18598C7.89491 8.18598 7.53386 8.42461 5.42775 10.4888C3.29757 12.5769 3.02077 12.9945 3.00873 14.0087C3.00873 14.8559 3.26147 15.4048 3.9956 16.1445L4.59734 16.7531L4.26036 17.5883L3.91135 18.4235L2.94856 18.4712C1.46826 18.5548 0.433257 19.2349 0.132384 20.3207C0.0601746 20.5713 0 21.9673 0 23.4946C0 26.5014 0.0481397 26.7639 0.7582 27.4917C1.34791 28.1003 1.7571 28.2673 2.93652 28.3389L4.01967 28.4105L4.33257 29.1861L4.65752 29.9616L4.00763 30.6417C3.65862 31.0236 3.28554 31.5128 3.18926 31.7395C2.93652 32.348 2.96059 33.398 3.2374 33.9349C3.53827 34.4957 7.25706 38.1588 7.81067 38.4333C8.38834 38.7196 9.47149 38.6958 10.0612 38.3975C10.3139 38.2662 10.7953 37.8844 11.1082 37.5622L11.6979 36.9776L12.4923 37.3117L13.2986 37.6458L13.3708 38.6361C13.4671 39.8054 13.5995 40.2111 14.117 40.7361C14.6706 41.3208 15.1159 41.5117 16.0546 41.5833L16.873 41.6549L16.8609 43.0867C16.8369 44.614 16.9331 45.0316 17.4627 45.6998C17.8478 46.177 18.8226 46.6066 19.5568 46.6066C20.5797 46.6066 20.6399 46.6543 21.0009 47.6327L21.3259 48.5157L20.7121 49.0646C20.3631 49.3748 19.9659 49.8401 19.8336 50.1146C19.4845 50.7708 19.4605 51.8685 19.7975 52.489C20.1705 53.193 23.6607 56.9396 24.1661 57.1782C24.7438 57.4527 25.7307 57.5242 26.2843 57.3453C26.525 57.2737 27.0786 56.9038 27.5118 56.5458L28.2941 55.8776L29.1245 56.2714L29.967 56.6771L29.9429 57.7509C29.9188 58.9919 30.1355 59.5646 30.8335 60.1493C31.5195 60.722 31.8324 60.7816 34.7689 60.9248C37.91 61.0799 38.2951 61.0322 39.0413 60.4237C39.7032 59.8868 39.98 59.2544 40.0522 58.1089L40.1124 57.1305L40.9789 56.8083L41.8575 56.4981L42.4953 57.1663C42.8564 57.5481 43.3618 57.9538 43.6146 58.085C44.1923 58.3714 45.2513 58.4072 45.8531 58.1566C46.4669 57.8941 50.3902 54.3146 50.7031 53.718C50.8837 53.372 50.9559 53.014 50.9559 52.5129C50.9559 51.6776 50.7513 51.2242 49.9811 50.3771C49.6922 50.0549 49.4756 49.7566 49.4876 49.7089C49.5117 49.6611 49.6922 49.2674 49.8848 48.8378L50.2458 48.0503L51.2688 48.0384C52.5084 48.0265 53.0861 47.8117 53.7119 47.0839C54.2775 46.4276 54.3738 45.9384 54.4942 42.9674C54.6145 40.3066 54.5303 39.7458 53.9887 39.0299C53.5193 38.4213 52.8213 38.0992 51.7622 38.0276L50.8837 37.956L50.5347 37.0014L50.1856 36.0588L50.8355 35.3906C51.5937 34.6389 51.8705 34.0781 51.8705 33.3026C51.8705 32.5628 51.6178 32.002 50.8957 31.1906L50.2819 30.4986L50.655 30.3673C52.3279 29.7827 54.5543 28.3986 56.0346 27.0145C60.9569 22.3968 62.377 15.2258 59.5849 9.11666C59.1517 8.17405 58.5018 7.92347 57.9482 8.48427C57.551 8.86609 57.5631 9.02121 58.0685 10.2025C59.9099 14.5337 59.4525 19.4258 56.8169 23.3394C54.771 26.3701 51.4613 28.5537 47.8148 29.2577C46.515 29.5082 44.108 29.544 42.8443 29.3173C37.1398 28.3031 32.6748 23.9957 31.4593 18.3281C31.1705 16.9559 31.1705 14.3428 31.4593 12.9826C32.0731 10.1309 33.3006 7.85188 35.3225 5.85926C37.5008 3.68766 40.1365 2.37516 43.1934 1.92175C47.4056 1.28936 51.69 2.64959 54.8793 5.64449C55.5532 6.26495 55.7578 6.39619 56.1068 6.39619C56.5762 6.39619 56.865 6.15756 56.9854 5.65642C57.0576 5.37006 56.9733 5.22687 56.3114 4.53482C54.3497 2.50641 51.4493 0.955265 48.4406 0.299011C46.9844 -0.0231476 44.2404 -0.094738 42.7842 0.131966ZM21.2416 7.29109C21.5184 7.55359 21.5425 7.6729 21.5425 8.69905C21.5425 10.0831 21.6147 10.1786 22.9265 10.632C23.4561 10.811 24.2022 11.1212 24.5994 11.3121C25.0928 11.5627 25.3937 11.6462 25.6103 11.5866C25.7788 11.5508 26.2722 11.1689 26.7175 10.7394C27.7766 9.72519 27.9331 9.72519 29.0282 10.7752C29.7744 11.503 29.8587 11.6224 29.7985 11.9445C29.3412 14.4263 29.281 15.9656 29.5578 17.815C29.8707 19.9627 30.653 22.0985 31.7842 23.9599L32.061 24.4133L31.7722 24.9145C31.6037 25.2127 31.4232 25.7974 31.351 26.3105L31.2306 27.1815L30.2799 27.5275L29.3291 27.8736L28.6431 27.2412C28.2821 26.9071 27.8849 26.5611 27.7766 26.5014C27.5841 26.394 27.5841 26.3224 27.7405 25.6662C28.9801 20.5951 25.8751 15.4763 20.7603 14.14C19.4123 13.782 17.2822 13.782 15.9463 14.14C12.6126 15.0229 10.0732 17.4809 9.07434 20.7741C8.66515 22.1463 8.60497 24.3298 8.95399 25.6662C9.84457 29.0787 12.4321 31.7037 15.85 32.6702C16.5841 32.873 17.1137 32.9327 18.2931 32.9446C19.1235 32.9446 19.9419 32.9088 20.1224 32.8491C20.4233 32.7656 20.4714 32.8014 20.6279 33.1713C20.7241 33.398 21.025 33.8276 21.2898 34.1139C21.5666 34.4003 21.7832 34.6867 21.7832 34.7463C21.7832 34.806 21.6147 35.2355 21.4101 35.7128L21.025 36.56L19.9178 36.6077C18.955 36.6435 18.7504 36.6793 18.3172 36.9776C17.6191 37.431 17.222 38.0753 17.0655 39.0179L16.9331 39.8054H16.3675C15.9824 39.8054 15.6935 39.7338 15.513 39.5787C15.2483 39.3639 15.2242 39.2566 15.1881 37.9798C15.1399 36.381 15.0798 36.2855 13.9605 35.9276C13.5995 35.8082 12.9255 35.5338 12.4562 35.3071C11.9386 35.0565 11.5295 34.9372 11.373 34.9849C11.2406 35.0327 10.7231 35.4622 10.2177 35.9395C8.85771 37.2401 8.91788 37.2639 6.64328 34.9969C5.13891 33.4935 4.81397 33.0997 4.81397 32.8253C4.81397 32.5628 5.01856 32.2764 5.70456 31.5724C6.19799 31.0713 6.64328 30.5224 6.67938 30.3554C6.73956 30.1406 6.65531 29.8423 6.40258 29.3531C6.21002 28.9594 5.92118 28.3031 5.77677 27.8736C5.31944 26.6088 5.24723 26.5611 3.70676 26.5611C2.4792 26.5611 2.38292 26.5491 2.10611 26.2628C1.80524 25.9764 1.80524 25.9764 1.80524 23.423C1.80524 20.1417 1.70896 20.3088 3.64658 20.261C5.23519 20.2133 5.25926 20.2014 5.59624 19.1633C5.71659 18.8053 5.99339 18.1133 6.22206 17.6241C6.43869 17.1468 6.61921 16.6457 6.61921 16.5144C6.61921 16.3832 6.21002 15.8582 5.71659 15.3451C4.40478 13.9729 4.38071 14.0565 6.65531 11.8013C8.91788 9.55814 8.84567 9.582 10.1575 10.8229C10.6509 11.2763 11.1564 11.6701 11.2767 11.6701C11.3971 11.682 12.1432 11.4076 12.9496 11.0735C13.7439 10.7275 14.4539 10.453 14.5141 10.453C14.5863 10.453 14.7428 10.3814 14.8752 10.286C15.0677 10.1428 15.1159 9.9161 15.164 8.78257C15.2483 6.89734 15.0918 6.99279 18.3773 6.99279C20.9528 6.99279 20.9528 6.99279 21.2416 7.29109ZM20.339 15.894C24.0819 16.8366 26.6935 20.6906 26.1278 24.4252C25.9112 25.7974 25.6825 26.394 25.2372 26.6565C24.8401 26.8951 21.5305 29.8662 20.8686 30.5582C20.4353 31.0355 19.8456 31.1548 18.1727 31.1429C16.8128 31.131 15.9703 30.9162 14.6224 30.2241C12.8172 29.2934 11.3128 27.3963 10.7592 25.3679C10.5065 24.4252 10.4824 22.5758 10.6991 21.669C11.7461 17.4093 16.0546 14.8201 20.339 15.894ZM35.9844 28.3747C39.1015 30.5702 43.1572 31.644 46.8159 31.2145C47.5139 31.1429 48.1277 31.0713 48.1879 31.0594C48.236 31.0474 48.6813 31.477 49.1747 32.0139C50.3541 33.3145 50.3421 33.3741 49.1025 34.5554C48.5128 35.1162 48.1397 35.5577 48.1397 35.7128C48.1397 35.844 48.2721 36.2497 48.4285 36.6077C48.597 36.9656 48.8618 37.7173 49.0303 38.2781C49.2108 38.8389 49.4515 39.3878 49.5719 39.5071C49.7524 39.6503 50.1255 39.7338 51.004 39.7816C52.6648 39.9009 52.713 39.9486 52.7009 41.5236C52.7009 42.1918 52.6528 43.4208 52.6047 44.2679C52.4964 46.2486 52.4843 46.2725 50.7393 46.2367C49.271 46.2009 49.0423 46.2725 48.8377 46.7617C48.7535 46.9765 48.3924 47.7043 48.0555 48.3964C47.7065 49.0884 47.4176 49.7805 47.4176 49.9475C47.4176 50.1504 47.6824 50.5441 48.248 51.1646C49.1867 52.1907 49.3071 52.4413 49.0784 52.8589C48.9942 53.0259 48.0795 53.9089 47.0566 54.8276C44.7098 56.9396 44.7699 56.9277 43.4702 55.5555C42.9767 55.0305 42.4472 54.5651 42.2907 54.5293C42.1343 54.4816 41.6047 54.6248 40.9549 54.8754C40.3772 55.114 39.6431 55.3646 39.3301 55.4362C38.4636 55.6509 38.3553 55.8419 38.259 57.3214C38.2229 58.0254 38.1507 58.6816 38.1026 58.789C37.91 59.2305 37.5851 59.2663 35.142 59.135C33.8543 59.0754 32.6748 59.0157 32.5304 59.0157C32.374 59.0157 32.1453 58.9083 32.0129 58.7771C31.7963 58.5623 31.7722 58.3833 31.7722 57.1186C31.7722 55.4362 31.7361 55.3765 30.5085 54.8992C30.0512 54.7322 29.3893 54.422 29.0523 54.231C28.0534 53.6703 27.9451 53.706 26.3324 55.1617C25.49 55.9254 25.2613 55.8776 24.1782 54.7441C22.5053 53.0021 21.4583 51.7969 21.374 51.5344C21.2537 51.1526 21.4462 50.8782 22.4572 49.9236C23.4922 48.9452 23.5042 48.8617 22.9987 47.7043C22.8062 47.2628 22.5535 46.5827 22.4331 46.189C22.0961 45.0674 21.9517 44.96 20.4594 44.8645C19.4123 44.8049 19.1476 44.7452 18.9069 44.5304L18.6301 44.2799L18.7023 42.1321C18.8467 38.2423 18.7865 38.3378 20.7241 38.3975C22.2165 38.4333 22.3128 38.3855 22.6858 37.3594C22.8062 37.0253 23.1071 36.3452 23.3598 35.844C24.0097 34.5554 23.9856 34.3884 23.0469 33.3741C21.8915 32.1213 21.9036 32.0497 23.6847 30.427C26.2843 28.0406 26.2 28.1122 26.6092 28.1122C26.9221 28.1122 27.1267 28.2673 27.8488 29.0071C28.4265 29.6037 28.7996 29.902 28.9921 29.902C29.1366 29.902 29.63 29.7469 30.0632 29.5559C30.5085 29.365 31.2667 29.0906 31.7602 28.9355C32.8915 28.6014 33.0961 28.3986 33.0961 27.6469C33.0961 27.3366 33.1322 26.8236 33.1683 26.5133L33.2525 25.9645L34.2273 26.8951C34.7569 27.4082 35.5512 28.0645 35.9844 28.3747Z" fill="#FF6F00"/>
<path d="M17.607 18.2326C15.9943 18.4116 14.3575 19.5809 13.6114 21.0962C12.0468 24.3059 14.0206 28.0167 17.607 28.6133C18.642 28.7804 19.6529 28.6014 20.7842 28.0525C22.7579 27.086 23.9614 24.7951 23.6004 22.6593C23.1069 19.7479 20.6037 17.8985 17.607 18.2326ZM19.7372 20.2491C21.9636 21.2394 22.5293 24.1508 20.8203 25.8451C19.4724 27.1815 17.3061 27.1934 15.9462 25.8809C14.5621 24.5445 14.5742 22.2536 15.9582 20.9292C16.6562 20.2729 17.3542 19.9985 18.3531 19.9985C18.9429 19.9985 19.3641 20.082 19.7372 20.2491Z" fill="#FF6F00"/>
<path d="M34.0829 32.6583C30.2438 33.2906 27.0666 36.214 26.1158 39.9725C25.7788 41.2731 25.7909 43.3611 26.1158 44.6498C27.3073 49.2555 31.4112 52.2981 36.1529 52.0595C37.7897 51.9759 38.933 51.6777 40.3651 50.9259C42.7481 49.685 44.5292 47.4299 45.2634 44.7572C45.6364 43.4089 45.6364 41.2134 45.2634 39.8651C44.794 38.123 43.8793 36.56 42.6759 35.4026C42.05 34.7941 41.5566 34.7105 41.1354 35.1282C40.7142 35.5458 40.7984 36.0111 41.4363 36.6912C45.5642 41.0702 43.9275 47.931 38.2951 49.864C33.8302 51.3913 28.932 48.7066 27.8488 44.1606C27.548 42.8839 27.6683 40.8554 28.1016 39.6861C28.2821 39.1969 28.5468 38.6003 28.6792 38.3736C30.5085 35.3191 33.9626 33.7799 37.3685 34.4958C38.4516 34.7225 38.5358 34.7225 38.8608 34.4242C39.2218 34.0901 39.1737 33.41 38.7525 33.0997C38.1026 32.6344 35.6595 32.3958 34.0829 32.6583Z" fill="#FF6F00"/>
<path d="M34.3115 37.1327C32.8072 37.5264 31.5676 38.5645 30.8334 40.0321C30.4363 40.8196 30.3881 41.0225 30.352 42.0605C30.3159 43.0032 30.352 43.3372 30.5566 43.9577C31.387 46.3918 33.6015 47.8356 36.201 47.6446C39.2218 47.4179 41.5205 44.5066 41.0391 41.5117C40.5336 38.3736 37.3684 36.3094 34.3115 37.1327ZM37.2721 39.1372C38.5358 39.7696 39.2579 40.927 39.2579 42.3111C39.2579 43.4088 38.9089 44.1725 38.0664 44.9361C36.5621 46.2963 34.3597 46.1651 32.9997 44.6378C31.9166 43.4208 31.8323 41.4639 32.7951 40.1992C33.8542 38.8389 35.7798 38.3736 37.2721 39.1372Z" fill="#FF6F00"/>
<path d="M43.747 4.36778C41.1114 4.73767 38.3794 6.15756 36.7186 8.01893C34.1311 10.9184 33.1563 14.844 34.1191 18.4951C35.7799 24.7832 42.4593 28.4105 48.7415 26.4179C52.2076 25.3201 54.9997 22.5042 56.1189 18.9843C57.8158 13.615 55.2404 7.82802 50.0413 5.38199C49.4155 5.09562 48.4527 4.7496 47.8991 4.60642C46.7196 4.33198 44.782 4.21267 43.747 4.36778ZM44.2886 6.47972C44.3006 7.15984 44.9385 7.55359 45.5643 7.29109C45.9614 7.12404 46.0938 6.90927 46.0938 6.44392C46.0938 6.08597 46.3225 6.07404 47.5741 6.3962C49.1988 6.80188 50.7874 7.7087 51.9909 8.90189C53.1944 10.0951 54.1091 11.6701 54.5183 13.2809C54.8432 14.5218 54.8312 14.7485 54.4701 14.7485C54.0008 14.7485 53.7841 14.8798 53.6157 15.2735C53.3509 15.9059 53.748 16.5264 54.434 16.5383H54.783L54.6988 17.1587C54.4942 18.6264 53.6036 20.5355 52.5566 21.7525C51.0402 23.5184 48.8498 24.7474 46.6595 25.0696C46.0938 25.1531 46.0938 25.1531 46.0938 24.8071C46.0938 24.0792 45.4319 23.6616 44.782 23.9838C44.4089 24.1747 44.2886 24.3895 44.2886 24.8429C44.2886 25.2008 44.1442 25.2008 42.8925 24.8906C39.4265 24.0076 36.7547 21.3588 35.8641 17.9224C35.5512 16.6815 35.5512 16.5383 35.9123 16.5383C36.3696 16.5383 36.5862 16.419 36.7788 16.0491C37.1037 15.4048 36.6825 14.7485 35.9484 14.7485C35.5994 14.7485 35.5994 14.7485 35.6836 14.1877C36.1289 11.2525 38.0786 8.57973 40.8225 7.17177C41.8575 6.63483 43.2897 6.18142 43.9636 6.16949C44.2404 6.15756 44.2886 6.20529 44.2886 6.47972Z" fill="#FF6F00"/>
<path d="M44.9023 10.3576C44.3247 10.5604 44.3006 10.6917 44.2885 13.5792V16.2997H43.049C41.9056 16.2997 41.7853 16.3235 41.5446 16.5741C41.2196 16.9201 41.2076 17.3735 41.5085 17.7434C41.7371 18.0179 41.7853 18.0298 43.6868 18.0298C45.5883 18.0298 45.6365 18.0179 45.8651 17.7434C46.0818 17.4809 46.0938 17.2423 46.0938 14.1877C46.0938 12.2786 46.0456 10.8229 45.9734 10.6917C45.817 10.3934 45.2634 10.2263 44.9023 10.3576Z" fill="#FF6F00"/>
</svg>
