<svg width="100" height="61" viewBox="0 0 100 61" fill="none" xmlns="http://www.w3.org/2000/svg">
<path d="M13.5537 0.325272C13.4227 0.506008 13.2918 2.13263 13.27 4.57256L13.2045 8.50356L6.8973 8.57134C2.53245 8.59393 0.480968 8.70689 0.28455 8.88763C-0.195583 9.29428 0.022659 10.4917 0.655562 10.8079C1.33211 11.1694 23.4183 11.2372 24.3349 10.8757C25.0333 10.6046 25.2297 10.1076 24.9678 9.31687L24.7714 8.72948L20.1883 8.61652L15.6052 8.50356V5.45365V2.40373L41.0959 2.33596L66.5648 2.29077V24.8827V47.4747H53.623H40.7031L40.1793 46.4581C39.4809 45.1025 37.364 43.0467 35.9672 42.3915C34.2431 41.5782 32.148 41.2845 30.4893 41.5782C27.6085 42.0978 24.7495 44.1537 23.5492 46.6162L23.1345 47.4747H19.3153H15.4961L15.5397 42.0978L15.6052 36.7435L19.6208 36.6757C22.1306 36.6531 23.7456 36.5176 23.942 36.382C24.3567 36.0206 24.2912 34.9587 23.8329 34.5295C23.4619 34.1906 22.4798 34.1454 14.1648 34.1454C9.07972 34.1454 4.80217 34.2358 4.67122 34.3262C4.14744 34.6876 3.95102 35.4106 4.21292 35.9754L4.49663 36.5176L8.90513 36.5854L13.3136 36.6306V42.03V47.4295L12.6153 47.5877C10.6947 48.0169 9.47256 49.6661 9.64715 51.5864C9.7781 52.829 10.2582 53.6649 11.3494 54.433C12.0478 54.9075 12.2224 54.93 17.5475 54.93H23.0254L23.571 55.9919C24.3785 57.5733 26.1681 59.2903 27.8704 60.1714C29.289 60.8943 29.4636 60.9169 31.8642 60.9169C34.2213 60.9169 34.4613 60.8717 35.8363 60.194C37.604 59.3355 39.0444 58.0025 40.092 56.2404L40.8777 54.93H56.7439H72.6319L73.2867 56.1048C74.1596 57.7314 75.8838 59.3355 77.6515 60.194C78.83 60.7588 79.4629 60.9169 81.0125 60.9847C84.8972 61.188 88.1272 59.3581 89.8076 55.9919L90.3532 54.93H93.8669C97.8826 54.93 98.5373 54.7493 99.4321 53.3486C99.825 52.7386 99.9777 52.1738 99.9995 51.3605C99.9995 49.508 99.0393 48.175 97.337 47.7006L96.5077 47.4747L96.3986 39.2738C96.2894 30.7566 96.224 29.9659 95.1982 26.916C93.1686 20.9065 88.0835 15.6426 82.2783 13.5416C79.7466 12.6379 78.2844 12.4346 73.614 12.299L68.9655 12.1861V6.37992C68.9655 2.15522 68.9 0.506008 68.7036 0.302681C68.2889 -0.126568 13.9029 -0.0813828 13.5537 0.325272ZM78.459 15.0552C86.2066 16.4559 92.3829 22.8495 93.736 30.8696C93.9761 32.3607 94.0634 34.6199 94.0634 40.1549V47.4747H92.2519H90.4405L89.5239 46.0062C88.4327 44.3118 87.2105 43.2048 85.5082 42.3915C82.7802 41.1038 80.0085 41.1489 77.3023 42.5271C75.7092 43.3404 73.8104 45.1929 73.2212 46.5484L72.8284 47.4747H70.886H68.9655V31.0955V14.7164H72.7629C75.1636 14.7164 77.2369 14.8519 78.459 15.0552ZM34.7887 44.5151C36.1636 45.1477 37.6477 46.6388 38.346 48.1299C38.8698 49.2143 38.9571 49.6661 38.9571 51.3153C38.9353 52.9419 38.848 53.4164 38.346 54.4104C37.1675 56.7826 35.5307 58.0703 33.1082 58.5222C30.6857 58.974 28.416 58.1381 26.6482 56.15C25.3824 54.7041 24.8587 53.2808 24.8587 51.2476C24.8587 47.9039 26.7574 45.2607 29.9655 44.1763C31.1659 43.7696 33.5229 43.9278 34.7887 44.5151ZM84.4825 44.5829C85.9011 45.2607 87.1451 46.5032 87.9089 48.0395C88.4327 49.0335 88.4982 49.4402 88.4982 51.3153C88.4982 53.1227 88.4109 53.6197 87.9962 54.433C86.6213 57.1215 84.2861 58.5899 81.4708 58.5899C80.0958 58.5899 79.6375 58.477 78.459 57.8896C76.7567 57.0085 75.4909 55.5852 74.8362 53.823C74.2033 52.0835 74.3342 49.6661 75.1199 48.0395C75.6873 46.8873 77.1496 45.3059 78.1535 44.7411C80.0304 43.7018 82.5183 43.6567 84.4825 44.5829ZM22.4798 51.3153V52.6708H17.8531C14.5576 52.6708 13.0517 52.5805 12.6589 52.3772C11.9823 52.0157 11.8078 50.999 12.3534 50.3891C12.7025 49.9824 13.0736 49.9598 17.613 49.9598H22.4798V51.3153ZM72.0209 51.3153V52.6708H56.7439H41.4669V51.3153V49.9598H56.7439H72.0209V51.3153ZM97.1624 50.2309C97.8171 50.7731 97.839 51.4961 97.2497 52.106C96.7259 52.6483 96.6168 52.6708 93.8451 52.6708H91.008V51.3153V49.9598H93.9106C95.8966 49.9598 96.9223 50.0502 97.1624 50.2309Z" fill="#FF6F00"/>
<path d="M72.2828 18.1503C71.9118 18.5344 71.9118 34.8458 72.2828 35.2299C72.4792 35.4332 74.8144 35.501 81.4271 35.501C89.2184 35.501 90.3751 35.4558 90.6588 35.1395C91.1389 34.6425 91.1171 32.3607 90.5715 30.2145C89.1093 24.2954 84.5044 19.6188 78.7428 18.2181C77.0405 17.8115 72.6538 17.7663 72.2828 18.1503ZM78.2408 20.6355C81.8418 21.4036 85.5737 24.4535 87.2542 28.0456C88.0617 29.7626 88.8474 32.6318 88.5855 32.8803C88.5418 32.9255 85.3337 33.0159 81.4708 33.061L74.4216 33.174V26.6449V20.1384L75.7965 20.274C76.5385 20.3418 77.6515 20.4999 78.2408 20.6355Z" fill="#FF6F00"/>
<path d="M30.1839 47.678C27.8051 48.8302 27.3249 51.9931 29.2018 54.0489C31.0787 56.0822 34.1341 55.6078 35.3562 53.1001C37.0367 49.7113 33.5667 46.0514 30.1839 47.678ZM32.9556 50.1857C33.8504 51.112 33.1738 52.8967 31.9298 52.8967C31.2969 52.8967 30.3367 51.9479 30.3367 51.3605C30.3367 50.0276 32.0608 49.2594 32.9556 50.1857Z" fill="#FF6F00"/>
<path d="M80.096 47.4973C79.3976 47.791 78.3937 48.7625 78.0009 49.5532C77.608 50.3213 77.608 52.0157 78.0009 52.9646C78.5901 54.4782 80.5761 55.5852 82.1256 55.2915C83.1077 55.1108 84.2208 54.3201 84.8319 53.3712C85.5521 52.2868 85.5302 50.4568 84.7882 49.1465C83.8934 47.5877 81.7328 46.8195 80.096 47.4973ZM82.7804 50.4343C83.5879 51.5864 82.4748 53.1679 81.0999 52.8064C80.467 52.6483 79.8341 51.4961 80.0523 50.8861C80.4888 49.5984 81.9947 49.3498 82.7804 50.4343Z" fill="#FF6F00"/>
<path d="M28.3943 8.9328C28.2415 9.11353 28.1542 9.54278 28.1979 9.90425C28.307 10.9209 28.9617 11.1016 32.6282 11.1016C36.2946 11.1016 36.9494 10.9209 37.0585 9.90425C37.1894 8.68428 36.9712 8.61651 32.6282 8.61651C29.42 8.61651 28.5907 8.68428 28.3943 8.9328Z" fill="#FF6F00"/>
<path d="M4.84588 17.4726C4.51851 17.8115 4.51851 18.4441 4.80223 19.0314C5.02047 19.4381 5.30418 19.4607 9.66903 19.4607C12.9863 19.4607 14.3831 19.3929 14.5795 19.1896C14.9069 18.8507 14.9069 17.8115 14.5795 17.4726C14.2085 17.0885 5.21689 17.0885 4.84588 17.4726Z" fill="#FF6F00"/>
<path d="M18.1586 17.4726C17.8312 17.8115 17.8312 18.8507 18.1586 19.1896C18.355 19.3929 21.2358 19.4607 29.7909 19.4607C40.5503 19.4607 41.205 19.4381 41.5324 19.054C41.9907 18.5344 42.0125 18.0148 41.5542 17.563C41.2486 17.2467 39.8955 17.2015 29.8127 17.2015C21.2358 17.2015 18.355 17.2693 18.1586 17.4726Z" fill="#FF6F00"/>
<path d="M0.480997 25.9219C-0.0427845 26.306 -0.17373 27.3227 0.262755 27.7745C0.437349 27.9552 1.59403 28.0456 4.03835 28.0456C7.26834 28.0456 7.5957 28.0004 7.96671 27.5938C8.46867 27.0064 8.25043 26.0575 7.50841 25.7864C7.20287 25.6508 5.6097 25.5605 3.97288 25.5605C1.61586 25.5605 0.873834 25.6283 0.480997 25.9219Z" fill="#FF6F00"/>
<path d="M11.8514 25.7865C11.1967 26.0576 11.0221 26.8257 11.4368 27.4809L11.786 28.0457H24.1821C33.5229 28.0457 36.6438 27.9779 36.8402 27.7746C37.2767 27.3227 37.1457 26.3061 36.622 25.922C36.1855 25.6057 34.6578 25.5605 24.2258 25.5831C17.6785 25.5831 12.1133 25.6735 11.8514 25.7865Z" fill="#FF6F00"/>
<path d="M27.7613 34.5069C27.1939 34.9136 27.1284 35.7721 27.6304 36.2691C27.9141 36.5854 28.8307 36.6306 34.2649 36.6306C41.0959 36.6306 41.2487 36.608 41.2487 35.388C41.2487 34.2358 40.7904 34.1454 34.2649 34.1454C29.1799 34.1454 28.176 34.1906 27.7613 34.5069Z" fill="#FF6F00"/>
</svg>
