<svg width="61" height="61" viewBox="0 0 61 61" fill="none" xmlns="http://www.w3.org/2000/svg">
<path d="M14.6849 0.265217C14.4284 0.503914 14.3999 0.702827 14.3999 2.32065V4.11087H12.5473C10.6092 4.11087 9.98216 4.24348 9.78265 4.70761C9.66864 4.99935 9.66864 23.7767 9.78265 24.0685C9.83965 24.1746 10.0677 24.3735 10.2957 24.4796C10.6519 24.652 10.7944 24.652 11.1365 24.5193C11.3787 24.4398 11.621 24.2541 11.6922 24.1215C11.7777 23.9757 11.8347 20.435 11.8347 14.998V6.1H32.997H54.1592V32.5554V59.0109L42.8299 59.0374L31.5149 59.0772L31.2014 59.3689C30.8166 59.727 30.7881 60.3635 31.1444 60.7348C31.4009 61 31.5577 61 43.571 61C55.5415 61 55.7268 61 56.0118 60.7348C56.2683 60.4961 56.2968 60.2972 56.2968 58.6793V56.8891H58.1494C60.0875 56.8891 60.7145 56.7565 60.914 56.2924C60.9568 56.173 60.9995 43.5885 60.9995 28.3252V0.570217L60.6718 0.29174L60.344 0H37.6569C15.1551 0 14.9699 0 14.6849 0.265217ZM58.8619 28.4446V54.9H57.6506H56.4393L56.4108 29.8237L56.3681 4.74739L55.969 4.42913L55.57 4.11087H36.0466H16.5375V3.05V1.98913H37.6997H58.8619V28.4446Z" fill="#FF6F00"/>
<path d="M19.6727 10.4761C19.3164 10.8076 19.3022 11.4176 19.6584 11.8154L19.9292 12.1337H32.3985C44.4546 12.1337 44.8821 12.1204 45.1671 11.8817C45.5519 11.5502 45.5661 10.8341 45.1814 10.4761C44.8964 10.2108 44.7111 10.2108 32.427 10.2108C20.143 10.2108 19.9577 10.2108 19.6727 10.4761Z" fill="#FF6F00"/>
<path d="M16.7229 15.913C16.0816 16.1517 15.9391 16.8678 16.4094 17.4247L16.6944 17.7695H32.4129H48.1314L48.4306 17.4645C48.8154 17.08 48.8297 16.5761 48.4734 16.165L48.2026 15.8467L32.6124 15.8202C23.8055 15.8069 16.9082 15.8467 16.7229 15.913Z" fill="#FF6F00"/>
<path d="M16.4662 21.8141C16.2667 21.9865 16.1099 22.2915 16.1099 22.4772C16.1099 22.6628 16.2667 22.9678 16.4662 23.1402L16.8082 23.4717H32.4269H48.0457L48.3877 23.1402C48.8722 22.7026 48.8579 22.1191 48.3734 21.7611C47.9887 21.4826 47.9602 21.4826 32.3984 21.4826H16.8082L16.4662 21.8141Z" fill="#FF6F00"/>
<path d="M1.98754 27.808C1.1325 28.2191 0.391466 29.028 0.149205 29.8104C-0.0503046 30.4867 -0.0503046 57.9633 0.149205 58.6396C0.391466 59.422 1.1325 60.2309 1.98754 60.642L2.77133 61H13.5306C24.1331 61 24.2898 61 24.9026 60.7215C25.6721 60.3767 26.5557 59.4485 26.7694 58.7722C27.0117 58.0163 27.0117 30.4204 26.7694 29.6513C26.5414 28.922 25.3586 27.8213 24.5748 27.6091C24.1331 27.4898 21.2829 27.45 13.3738 27.45H2.77133L1.98754 27.808ZM24.3896 29.8237L24.8029 30.2083V44.225V58.2417L24.3896 58.6263L23.9763 59.0109H13.4878H3.01359L2.61457 58.6926L2.21555 58.3743L2.1728 44.4637C2.1443 34.1998 2.18705 30.4735 2.30105 30.195C2.65732 29.3993 2.1158 29.4391 13.5163 29.4391H23.9763L24.3896 29.8237Z" fill="#FF6F00"/>
<path d="M5.05146 31.6935C4.33892 31.9587 4.28192 32.2239 4.28192 35.1015C4.28192 37.9792 4.35317 38.3372 4.9802 38.5892C5.23672 38.682 7.91584 38.7218 13.7444 38.6952L22.1238 38.6555L22.3945 38.3372C22.6368 38.0587 22.6653 37.7935 22.6653 35.1811C22.6653 33.5765 22.6083 32.2372 22.5228 32.0913C22.4515 31.9587 22.1808 31.7863 21.9385 31.7068C21.3827 31.5344 5.52173 31.5211 5.05146 31.6935ZM20.5277 35.1413V36.7326H13.4736H6.41952V35.1413V33.55H13.4736H20.5277V35.1413Z" fill="#FF6F00"/>
<path d="M3.86864 41.9839C3.52663 42.395 3.49813 42.5542 3.72614 43.0183C3.95415 43.4692 4.52417 43.6283 5.92074 43.6283C7.3173 43.6283 7.88733 43.4692 8.11534 43.0183C8.34335 42.5542 8.31485 42.395 7.97283 41.9839C7.68782 41.6392 7.65932 41.6392 5.92074 41.6392C4.18216 41.6392 4.15366 41.6392 3.86864 41.9839Z" fill="#FF6F00"/>
<path d="M10.652 41.8778C10.3099 42.2359 10.3384 43.005 10.709 43.31C10.9797 43.5354 11.2505 43.562 13.5021 43.562H15.996L16.338 43.1906C16.7512 42.7398 16.7655 42.448 16.3807 41.9839L16.0957 41.6391H13.4878C11.1507 41.6391 10.8515 41.6656 10.652 41.8778Z" fill="#FF6F00"/>
<path d="M19.0314 41.9043C18.6751 42.2756 18.7036 42.9122 19.0884 43.2702C19.3734 43.5354 19.5302 43.562 21.112 43.562C22.7508 43.562 22.8506 43.5487 23.1071 43.2437C23.4633 42.8459 23.4491 42.2359 23.0928 41.9043C22.8363 41.6656 22.6225 41.6391 21.055 41.6391C19.4731 41.6391 19.2594 41.6656 19.0314 41.9043Z" fill="#FF6F00"/>
<path d="M3.92566 46.2141C3.72615 46.3865 3.5694 46.6915 3.5694 46.8771C3.5694 47.0628 3.72615 47.3678 3.92566 47.5402C4.25343 47.8584 4.35318 47.8717 5.92076 47.8717C7.48833 47.8717 7.58808 47.8584 7.91585 47.5402C8.37187 47.1291 8.37187 46.6252 7.91585 46.2141C7.58808 45.8958 7.48833 45.8826 5.92076 45.8826C4.35318 45.8826 4.25343 45.8958 3.92566 46.2141Z" fill="#FF6F00"/>
<path d="M10.8799 46.0417C10.2244 46.3334 10.2386 47.5534 10.9084 47.7921C11.0367 47.8319 12.2337 47.8717 13.559 47.8717C15.9389 47.8717 15.9816 47.8717 16.3237 47.5402C16.5232 47.3678 16.6799 47.0628 16.6799 46.8771C16.6799 46.6915 16.5232 46.3865 16.3237 46.2141C15.9816 45.8826 15.9389 45.8826 13.5875 45.8958C12.2052 45.8958 11.0652 45.9621 10.8799 46.0417Z" fill="#FF6F00"/>
<path d="M19.2879 46.0417C18.6323 46.3334 18.6466 47.5534 19.3164 47.7921C19.4446 47.8319 20.2427 47.8717 21.0834 47.8717C22.423 47.8717 22.6795 47.8319 23.0073 47.5932C23.278 47.3943 23.3778 47.1954 23.3778 46.8771C23.3778 46.5589 23.278 46.36 23.0073 46.1611C22.6795 45.9224 22.4373 45.8826 21.1119 45.8958C20.2854 45.8958 19.4589 45.9621 19.2879 46.0417Z" fill="#FF6F00"/>
<path d="M3.86866 50.6035C3.69765 50.8024 3.5694 51.0544 3.5694 51.187C3.5694 51.3196 3.69765 51.5715 3.86866 51.7705C4.15367 52.1152 4.18218 52.1152 5.92076 52.1152C7.65934 52.1152 7.68784 52.1152 7.97285 51.7705C8.14386 51.5715 8.27212 51.3196 8.27212 51.187C8.27212 51.0544 8.14386 50.8024 7.97285 50.6035C7.68784 50.2587 7.65934 50.2587 5.92076 50.2587C4.18218 50.2587 4.15367 50.2587 3.86866 50.6035Z" fill="#FF6F00"/>
<path d="M10.6521 50.4974C10.3243 50.8289 10.3386 51.6246 10.6663 51.8898C10.8943 52.0887 11.3076 52.1152 13.5165 52.1152H16.0958L16.3808 51.7705C16.5519 51.5715 16.6801 51.3196 16.6801 51.187C16.6801 51.0544 16.5519 50.8024 16.3808 50.6035L16.0958 50.2587H13.488C11.1509 50.2587 10.8516 50.2852 10.6521 50.4974Z" fill="#FF6F00"/>
<path d="M19.0312 50.5239C18.8887 50.6698 18.7747 50.9748 18.7747 51.187C18.7747 51.3991 18.8887 51.7041 19.0312 51.85C19.2592 52.0887 19.473 52.1152 21.0548 52.1152C22.6224 52.1152 22.8362 52.0887 23.0927 51.85C23.2494 51.7041 23.3777 51.4124 23.3777 51.187C23.3777 50.9615 23.2494 50.6698 23.0927 50.5239C22.8362 50.2852 22.6224 50.2587 21.0548 50.2587C19.473 50.2587 19.2592 50.2852 19.0312 50.5239Z" fill="#FF6F00"/>
<path d="M3.92566 54.8337C3.72615 55.0061 3.5694 55.3111 3.5694 55.4968C3.5694 55.6824 3.72615 55.9874 3.92566 56.1598C4.25343 56.4781 4.35318 56.4913 5.92076 56.4913C7.48833 56.4913 7.58808 56.4781 7.91585 56.1598C8.37187 55.7487 8.37187 55.2448 7.91585 54.8337C7.58808 54.5155 7.48833 54.5022 5.92076 54.5022C4.35318 54.5022 4.25343 54.5155 3.92566 54.8337Z" fill="#FF6F00"/>
<path d="M10.8087 54.6879C10.4524 54.9398 10.2814 55.4437 10.4382 55.815C10.6804 56.4383 10.8942 56.4781 13.5163 56.4913C15.9389 56.4913 15.9817 56.4913 16.3237 56.1598C16.5232 55.9874 16.68 55.6824 16.68 55.4968C16.68 55.3111 16.5232 55.0061 16.3237 54.8337C15.9817 54.5022 15.9389 54.5022 13.5163 54.5022C11.7207 54.5155 10.9797 54.5552 10.8087 54.6879Z" fill="#FF6F00"/>
<path d="M19.2024 54.6613C18.8604 54.9133 18.6894 55.4437 18.8461 55.815C19.0741 56.3985 19.3591 56.4781 21.0407 56.4913C22.4373 56.4913 22.6795 56.4516 23.0073 56.2129C23.5203 55.8416 23.5203 55.152 23.0073 54.7807C22.6795 54.542 22.423 54.5022 21.0407 54.5022C19.9862 54.5022 19.3591 54.5552 19.2024 54.6613Z" fill="#FF6F00"/>
<path d="M40.2362 29.9696C39.7517 30.1552 39.6235 30.5266 39.6235 31.7466V32.887L37.7424 32.9002C35.619 32.9135 35.1345 33.0196 34.4077 33.6694C33.6952 34.3324 33.6097 34.7833 33.6667 38.2444C33.7094 41.0822 33.7379 41.3474 34.023 41.8381C34.764 43.1244 35.619 43.5089 37.9561 43.6018L39.6235 43.6681V46.9568V50.2587H37.8706C36.7021 50.2587 36.0608 50.2057 35.9468 50.0996C35.8328 49.9935 35.7758 49.4498 35.7758 48.5083C35.7758 47.1557 35.7473 47.0496 35.4195 46.7446C34.9778 46.3202 34.4362 46.3202 33.9802 46.7446C33.6239 47.0761 33.6239 47.1159 33.6667 48.8531C33.7094 50.4974 33.7379 50.6433 34.0942 51.1472C34.7355 52.0489 35.3768 52.2479 37.6711 52.2479H39.6235V53.4413C39.6235 54.542 39.652 54.6746 39.9797 54.9663C40.3645 55.3376 40.5783 55.3642 41.0913 55.152C41.6043 54.9398 41.7611 54.4889 41.7611 53.3087V52.2479H43.4711C45.7655 52.2479 46.4495 51.9826 47.0481 50.8952C47.2903 50.4444 47.3188 50.0863 47.3188 47.1822C47.3188 43.5885 47.2476 43.31 46.307 42.4746C45.5375 41.7983 44.9532 41.6392 43.2574 41.6392H41.7611V38.2576V34.8761H43.3001C44.1409 34.8761 44.8962 34.9292 44.996 34.9822C45.0957 35.0352 45.167 35.6452 45.2097 36.6398C45.2525 38.1118 45.281 38.2311 45.5945 38.4698C46.0505 38.8146 46.6348 38.7881 47.0053 38.4168C47.2903 38.1383 47.3188 37.9659 47.3188 36.4144C47.3188 34.4385 47.1193 33.9213 46.1503 33.3246C45.5945 32.9798 45.452 32.9533 43.6564 32.9135L41.7611 32.8605V31.7598C41.7611 30.7918 41.7183 30.6061 41.4476 30.3144C41.0628 29.9298 40.6638 29.8105 40.2362 29.9696ZM39.6235 38.2709V41.6657L38.0416 41.6126C36.5168 41.5729 36.4456 41.5596 36.1178 41.2016C35.7758 40.8302 35.7758 40.8037 35.7758 38.0057C35.7758 36.0033 35.8185 35.1546 35.9468 35.0352C36.0608 34.9292 36.7021 34.8761 37.8706 34.8761H39.6235V38.2709ZM44.8677 43.9333C45.1812 44.2383 45.1812 44.3179 45.1527 47.222L45.11 50.1924L43.4426 50.2322L41.7611 50.272V46.9435V43.6283H43.1576C44.4402 43.6283 44.5827 43.6548 44.8677 43.9333Z" fill="#FF6F00"/>
</svg>
