<svg width="50" height="50" viewBox="0 0 50 50" fill="none" xmlns="http://www.w3.org/2000/svg">
<path d="M47.9167 13.5417L40.625 6.25" stroke="#FF6F00" stroke-width="2" stroke-linecap="round" stroke-linejoin="round"/>
<path d="M10.417 13.5417L17.7087 6.25" stroke="#FF6F00" stroke-width="2" stroke-linecap="round" stroke-linejoin="round"/>
<path d="M47.9167 19.792L40.625 27.0837" stroke="#FF6F00" stroke-width="2" stroke-linecap="round" stroke-linejoin="round"/>
<path d="M31.25 20.833V22.9163" stroke="#FF6F00" stroke-linecap="round" stroke-linejoin="round"/>
<path d="M31.25 10.417V12.5003" stroke="#FF6F00" stroke-linecap="round" stroke-linejoin="round"/>
<path d="M27.083 20.8333H33.333C33.8855 20.8333 34.4154 20.6138 34.8061 20.2231C35.1968 19.8324 35.4163 19.3025 35.4163 18.75C35.4163 18.1975 35.1968 17.6676 34.8061 17.2769C34.4154 16.8862 33.8855 16.6667 33.333 16.6667H29.1663C28.6138 16.6667 28.0839 16.4472 27.6932 16.0565C27.3025 15.6658 27.083 15.1359 27.083 14.5833C27.083 14.0308 27.3025 13.5009 27.6932 13.1102C28.0839 12.7195 28.6138 12.5 29.1663 12.5H35.4163" stroke="#FF6F00" stroke-linecap="round" stroke-linejoin="round"/>
<path d="M8.33301 32.292L13.0809 30.169C13.555 29.8527 13.9592 29.4425 14.2685 28.9638C14.5777 28.485 14.7855 27.9479 14.8788 27.3857L15.6247 22.917L22.0434 18.3336C22.3134 18.1409 22.5335 17.8864 22.6853 17.5915C22.8372 17.2965 22.9164 16.9695 22.9163 16.6378V15.4586C22.9164 15.1248 22.8362 14.7959 22.6826 14.4995C22.529 14.2031 22.3064 13.948 22.0335 13.7557C21.7607 13.5633 21.4457 13.4393 21.1149 13.3942C20.7842 13.349 20.4474 13.384 20.133 13.4961L11.5913 16.5524C9.44279 17.3173 7.44617 18.4556 5.69342 19.9149L2.08301 22.917" stroke="#FF6F00" stroke-width="2" stroke-linecap="round" stroke-linejoin="round"/>
<path d="M2.08301 43.7497L6.75801 40.6247C7.7867 39.9423 8.99441 39.5799 10.2288 39.583H30.7851C31.2225 39.5831 31.6489 39.4455 32.0037 39.1898C32.3586 38.934 32.6239 38.573 32.7622 38.158L36.458 27.083" stroke="#FF6F00" stroke-width="2" stroke-linecap="round" stroke-linejoin="round"/>
<path d="M34.375 33.333H25" stroke="#FF6F00" stroke-width="2" stroke-linecap="round" stroke-linejoin="round"/>
<path d="M27.083 33.333C26.2542 33.333 25.4593 33.0038 24.8733 32.4177C24.2872 31.8317 23.958 31.0368 23.958 30.208C23.958 29.3792 24.2872 28.5843 24.8733 27.9983C25.4593 27.4122 26.2542 27.083 27.083 27.083" stroke="#FF6F00" stroke-width="2" stroke-linecap="round" stroke-linejoin="round"/>
<path d="M25 39.583C24.1712 39.583 23.3763 39.2538 22.7903 38.6677C22.2042 38.0817 21.875 37.2868 21.875 36.458C21.875 35.6292 22.2042 34.8344 22.7903 34.2483C23.3763 33.6622 24.1712 33.333 25 33.333" stroke="#FF6F00" stroke-width="2" stroke-linecap="round" stroke-linejoin="round"/>
<path d="M10.417 13.5417V7.29167C10.417 7.0154 10.5267 6.75045 10.7221 6.5551C10.9174 6.35975 11.1824 6.25 11.4587 6.25H46.8753C47.1516 6.25 47.4165 6.35975 47.6119 6.5551C47.8072 6.75045 47.917 7.0154 47.917 7.29167V26.0417C47.917 26.3179 47.8072 26.5829 47.6119 26.7782C47.4165 26.9736 47.1516 27.0833 46.8753 27.0833H20.8337" stroke="#FF6F00" stroke-width="2" stroke-linecap="round" stroke-linejoin="round"/>
</svg>
