<svg width="15" height="15" viewBox="0 0 15 15" fill="none" xmlns="http://www.w3.org/2000/svg">
  <path d="M2.13388 0.366117C1.64573 -0.122039 0.854272 -0.122039 0.366117 0.366117C-0.122039 0.854272 -0.122039 1.64573 0.366117 2.13388L5.73223 7.5L0.366117 12.8661C-0.122039 13.3543 -0.122039 14.1457 0.366117 14.6339C0.854272 15.122 1.64573 15.122 2.13388 14.6339L7.5 9.26777L12.8661 14.6339C13.3543 15.122 14.1457 15.122 14.6339 14.6339C15.122 14.1457 15.122 13.3543 14.6339 12.8661L9.26777 7.5L14.6339 2.13388C15.122 1.64573 15.122 0.854272 14.6339 0.366117C14.1457 -0.122039 13.3543 -0.122039 12.8661 0.366117L7.5 5.73223L2.13388 0.366117Z" fill="#9A9A98" />
</svg>