<svg width="50" height="50" viewBox="0 0 50 50" fill="none" xmlns="http://www.w3.org/2000/svg">
<path d="M47.9167 22.9163L36.2083 10.2997C35.6637 9.71246 34.9614 9.29463 34.1855 9.09622C33.4096 8.89781 32.593 8.92722 31.8333 9.18093L24.0771 11.7663C23.4037 11.9908 22.6842 12.0396 21.9867 11.9079C21.2892 11.7763 20.6369 11.4687 20.0917 11.0143L9.375 2.08301" stroke="#FF6F00" stroke-width="2" stroke-linecap="round" stroke-linejoin="round"/>
<path d="M39.583 22.9163H47.9163V14.583" stroke="#FF6F00" stroke-width="2" stroke-linecap="round" stroke-linejoin="round"/>
<path d="M48.9587 47.917H1.04199" stroke="#FF6F00" stroke-linecap="round" stroke-linejoin="round"/>
<path d="M40.625 47.9167V38.5417C40.625 38.2654 40.7347 38.0004 40.9301 37.8051C41.1254 37.6097 41.3904 37.5 41.6667 37.5H45.8333C46.1096 37.5 46.3746 37.6097 46.5699 37.8051C46.7653 38.0004 46.875 38.2654 46.875 38.5417V47.9167H40.625Z" stroke="#FF6F00" stroke-width="2" stroke-linecap="round" stroke-linejoin="round"/>
<path d="M28.125 47.9163V28.1247C28.125 27.8484 28.2347 27.5835 28.4301 27.3881C28.6254 27.1928 28.8904 27.083 29.1667 27.083H33.3333C33.6096 27.083 33.8746 27.1928 34.0699 27.3881C34.2653 27.5835 34.375 27.8484 34.375 28.1247V47.9163H28.125Z" stroke="#FF6F00" stroke-width="2" stroke-linecap="round" stroke-linejoin="round"/>
<path d="M15.625 47.9167V32.2917C15.625 32.0154 15.7347 31.7504 15.9301 31.5551C16.1254 31.3597 16.3904 31.25 16.6667 31.25H20.8333C21.1096 31.25 21.3746 31.3597 21.5699 31.5551C21.7653 31.7504 21.875 32.0154 21.875 32.2917V47.9167H15.625Z" stroke="#FF6F00" stroke-width="2" stroke-linecap="round" stroke-linejoin="round"/>
<path d="M3.125 47.917V17.7087C3.125 17.4324 3.23475 17.1674 3.4301 16.9721C3.62545 16.7767 3.8904 16.667 4.16667 16.667H8.33333C8.6096 16.667 8.87455 16.7767 9.0699 16.9721C9.26525 17.1674 9.375 17.4324 9.375 17.7087V47.917H3.125Z" stroke="#FF6F00" stroke-width="2" stroke-linecap="round" stroke-linejoin="round"/>
</svg>
