<svg width="54" height="54" viewBox="0 0 54 54" fill="none" xmlns="http://www.w3.org/2000/svg">
<path d="M34.4988 19.4992L19.4989 34.499M34.4988 34.499H34.4738M19.5239 19.4992H19.4989M16.2289 46.0388C17.7039 46.0388 18.4439 46.0388 19.1164 46.2888C19.2114 46.3238 19.3039 46.3613 19.3939 46.4038C20.0464 46.7038 20.5689 47.2238 21.6139 48.2688C24.0189 50.6738 25.2214 51.8763 26.6989 51.9888C26.8989 52.0038 27.0989 52.0038 27.2989 51.9888C28.7764 51.8763 29.9789 50.6738 32.3838 48.2688C33.4288 47.2238 33.9513 46.7038 34.6038 46.4038C34.6938 46.3613 34.7853 46.3238 34.8788 46.2888C35.5538 46.0388 36.2913 46.0388 37.7688 46.0388H38.0438C41.8113 46.0388 43.6963 46.0388 44.8688 44.8688C46.0413 43.6988 46.0388 41.8114 46.0388 38.0439V37.7689C46.0388 36.2939 46.0388 35.554 46.2888 34.8815C46.3238 34.7865 46.3613 34.694 46.4038 34.604C46.7038 33.9515 47.2238 33.429 48.2688 32.384C50.6738 29.979 51.8763 28.7765 51.9888 27.299C52.0038 27.0991 52.0038 26.8991 51.9888 26.6991C51.8763 25.2216 50.6738 24.0191 48.2688 21.6141C47.2238 20.5691 46.7038 20.0467 46.4038 19.3942L46.2888 19.1192C46.0388 18.4442 46.0388 17.7067 46.0388 16.2292V15.9542C46.0388 12.1868 46.0388 10.3018 44.8688 9.12928C43.6988 7.9568 41.8113 7.95931 38.0438 7.95931H37.7688C36.2938 7.95931 35.5538 7.9593 34.8813 7.7093L34.6038 7.59431C33.9513 7.29431 33.4288 6.77431 32.3838 5.72933C29.9789 3.32436 28.7764 2.12187 27.2989 2.00937C27.0989 1.99688 26.8986 1.99688 26.6989 2.00937C25.2214 2.12187 24.0189 3.32436 21.6139 5.72933C20.5689 6.77431 20.0464 7.29681 19.3939 7.59431L19.1189 7.7093C18.4439 7.9593 17.7064 7.95931 16.2289 7.95931H15.9539C12.1865 7.95931 10.3015 7.9593 9.12896 9.12928C7.95647 10.2993 7.95898 12.1868 7.95898 15.9542V16.2292C7.95898 17.7042 7.95897 18.4442 7.70897 19.1167C7.67222 19.2117 7.63397 19.3042 7.59397 19.3942C7.29398 20.0467 6.77397 20.5691 5.72898 21.6141C3.32399 24.0191 2.1215 25.2216 2.009 26.6991C1.997 26.8991 1.997 27.0991 2.009 27.299C2.1215 28.7765 3.32399 29.979 5.72898 32.384C6.77397 33.429 7.29648 33.9515 7.59397 34.604C7.63547 34.694 7.67397 34.7864 7.70897 34.8789C7.95897 35.5539 7.95898 36.2914 7.95898 37.7689V38.0439C7.95898 41.8114 7.95897 43.6963 9.12896 44.8688C10.299 46.0413 12.1865 46.0388 15.9539 46.0388H16.2289Z" stroke="#FF6F00" stroke-width="3" stroke-linecap="round" stroke-linejoin="round"/>
</svg>
