<svg width="80" height="69" viewBox="0 0 80 69" fill="none" xmlns="http://www.w3.org/2000/svg">
<g clip-path="url(#clip0_1137_2534)">
<path fill-rule="evenodd" clip-rule="evenodd" d="M42.1348 38.657L42.9765 18.613C43.2888 18.9196 43.6359 19.1837 44.0264 19.3882L43.6967 38.9296H44.0784L45.137 19.8056C45.4667 19.8822 45.8051 19.9163 46.1522 19.9163C47.6099 19.9163 48.9114 19.2263 49.727 18.1615L50.0741 20.9981C49.7357 21.5774 49.458 22.2163 49.2325 22.8552C47.4624 27.8385 46.3518 32.0807 45.8572 37.3452C45.8051 37.8989 45.8745 38.4356 46.0481 38.9296H47.0893C46.881 38.4696 46.7769 37.967 46.829 37.4304C47.3236 32.1233 48.304 28.3837 50.1522 23.1704C50.8116 21.3219 51.7834 19.6011 53.7878 19.6011H67.2194C69.2151 19.6011 70.855 21.2026 70.855 23.1704V32.66H71.9049C72.9635 32.66 73.8398 33.5119 73.8398 34.5596V39.1085C73.8398 40.1478 72.9722 41.0082 71.9049 41.0082H45.5882C44.0264 41.0082 42.5774 40.02 42.1001 38.657H42.1348ZM56.4515 41.647H64.6511V43.027H56.4515V41.647ZM23.0459 22.293H23.4103V5.47741H23.4277L25.3192 0H26.8897L28.3474 4.94074L27.124 23L27.8355 23.9285H36.4255L38.1782 22.3015H39.4016L34.9765 28.5967H27.4971L23.0719 22.3015H23.0459V22.293ZM24.2867 22.293H25.2238L24.2867 13.6467V22.293ZM46.1522 12.1219C44.2259 12.1219 42.6641 13.6552 42.6641 15.5463C42.6641 17.4374 44.2259 18.9707 46.1522 18.9707C48.0784 18.9707 49.6403 17.4374 49.6403 15.5463C49.6403 13.6552 48.0784 12.1219 46.1522 12.1219ZM44.0351 11.6874C44.521 11.4319 45.0589 11.2615 45.6403 11.1933L27.9049 0.775185L28.2954 2.09556L44.0351 11.6874ZM41.6923 15.5463C41.6923 13.9363 42.5774 12.5307 43.8876 11.7641L28.7032 3.49259L29.1023 4.85556L29.0329 5.85222L41.6836 15.5463H41.6923ZM42.3344 44.0067H43.74V53.8541H36.0611C39.5839 51.52 41.1891 49.1519 42.3257 44.0067H42.3344ZM54.7682 21.2537C53.163 21.2537 52.3735 22.6337 51.8442 24.1244C50.3604 28.3241 50.2303 29.8148 49.8312 34.0826C49.6836 35.6585 51.15 36.9533 52.7552 36.9533H61.2411C66.6121 36.8937 68.6251 32.1404 68.5036 30.2663V24.1244C68.5036 22.5485 67.1847 21.2537 65.5795 21.2537H54.7682ZM60.521 46.0511C62.0307 46.0511 63.2541 47.2522 63.2541 48.7344C63.2541 50.2167 62.0307 51.4178 60.521 51.4178C59.0112 51.4178 57.7878 50.2167 57.7878 48.7344C57.7878 47.2522 59.0112 46.0511 60.521 46.0511ZM71.1934 46.0511C72.7032 46.0511 73.9266 47.2522 73.9266 48.7344C73.9266 50.2167 72.7032 51.4178 71.1934 51.4178C69.6837 51.4178 68.4602 50.2167 68.4602 48.7344C68.4602 47.2522 69.6837 46.0511 71.1934 46.0511ZM49.9179 46.0511C51.4277 46.0511 52.6511 47.2522 52.6511 48.7344C52.6511 50.2167 51.4277 51.4178 49.9179 51.4178C48.4082 51.4178 47.1847 50.2167 47.1847 48.7344C47.1847 47.2522 48.4082 46.0511 49.9179 46.0511ZM49.3539 43.6063C46.4819 43.6063 44.1305 45.9148 44.1305 48.7344C44.1305 51.5541 46.4819 53.8626 49.3539 53.8626H71.7661C74.6381 53.8626 76.9895 51.5541 76.9895 48.7344C76.9895 45.9148 74.6381 43.6063 71.7661 43.6063H49.3539ZM49.8919 44.9437C47.5752 44.9437 45.675 46.6474 45.675 48.7344C45.675 50.8215 47.5752 52.5252 49.8919 52.5252H71.2281C73.5448 52.5252 75.445 50.8215 75.445 48.7344C75.445 46.6474 73.5448 44.9437 71.2281 44.9437H49.8919Z" fill="#F8F8F8"/>
<path d="M60.5727 51.537C62.1301 51.537 63.3926 50.2975 63.3926 48.7685C63.3926 47.2395 62.1301 46 60.5727 46C59.0153 46 57.7527 47.2395 57.7527 48.7685C57.7527 50.2975 59.0153 51.537 60.5727 51.537Z" fill="#FF6F00"/>
<path d="M0 53.6667V42.9333H4.99783C5.99566 42.9333 6.85466 43.0952 7.57484 43.4104C8.30369 43.7256 8.86768 44.1856 9.25813 44.7904C9.65727 45.3867 9.84816 46.0852 9.84816 46.903C9.84816 47.7207 9.64859 48.4107 9.25813 49.007C8.859 49.6033 8.30369 50.0633 7.57484 50.387C6.85466 50.7022 5.99566 50.8641 4.99783 50.8641H1.718L3.08894 49.5437V53.6667H0ZM3.08894 49.8674L1.718 48.4704H4.80694C5.44902 48.4704 5.93492 48.3341 6.24729 48.053C6.56833 47.7804 6.73319 47.397 6.73319 46.903C6.73319 46.4089 6.56833 46.017 6.24729 45.7359C5.93492 45.4633 5.4577 45.3185 4.80694 45.3185H1.718L3.08894 43.9215V49.8589V49.8674ZM11.3579 53.6667V42.9333H16.3557C17.3536 42.9333 18.2126 43.0952 18.9328 43.4104C19.6616 43.7256 20.2256 44.1856 20.6161 44.7904C21.0152 45.3867 21.2061 46.0852 21.2061 46.903C21.2061 47.7207 21.0065 48.4107 20.6161 49.007C20.2169 49.5863 19.6616 50.0378 18.9328 50.353C18.2126 50.6596 17.3536 50.813 16.3557 50.813H13.0759L14.4469 49.5437V53.6667H11.3579ZM18.1171 53.6667L15.4013 49.7567H18.6985L21.4317 53.6667H18.1171ZM14.4469 49.8674L13.0759 48.4704H16.1649C16.8069 48.4704 17.2928 48.3341 17.6052 48.053C17.9262 47.7804 18.0911 47.397 18.0911 46.903C18.0911 46.4089 17.9262 46.017 17.6052 45.7359C17.2928 45.4633 16.8156 45.3185 16.1649 45.3185H13.0759L14.4469 43.9215V49.8589V49.8674ZM28.4252 53.8881C27.5488 53.8881 26.7419 53.7519 26.0043 53.4707C25.2668 53.1981 24.6161 52.8063 24.0694 52.3037C23.5315 51.7926 23.1063 51.1963 22.8026 50.5233C22.4989 49.8504 22.3514 49.1093 22.3514 48.3C22.3514 47.4907 22.4989 46.7496 22.8026 46.0767C23.1063 45.4037 23.5228 44.8159 24.0694 44.3133C24.6247 43.8022 25.2668 43.4104 26.0043 43.1293C26.7419 42.8567 27.5488 42.7119 28.4252 42.7119C29.3015 42.7119 30.1171 42.8482 30.846 43.1293C31.5835 43.4019 32.2256 43.8022 32.7636 44.3133C33.3015 44.8159 33.7267 45.4037 34.0304 46.0767C34.3427 46.7496 34.4989 47.4907 34.4989 48.3C34.4989 49.1093 34.3427 49.8504 34.0304 50.5404C33.7267 51.2133 33.3102 51.8011 32.7636 52.3037C32.2256 52.8063 31.5835 53.1896 30.846 53.4707C30.1171 53.7433 29.3102 53.8881 28.4252 53.8881ZM28.4252 51.3752C28.8416 51.3752 29.2234 51.307 29.5792 51.1622C29.9436 51.0174 30.256 50.813 30.5163 50.5489C30.7852 50.2763 30.9935 49.9441 31.141 49.5693C31.2972 49.1944 31.3753 48.7685 31.3753 48.3085C31.3753 47.8485 31.2972 47.4226 31.141 47.0478C30.9935 46.673 30.7852 46.3493 30.5163 46.0852C30.256 45.8126 29.9436 45.5996 29.5792 45.4548C29.2234 45.31 28.8416 45.2419 28.4252 45.2419C28.0087 45.2419 27.6182 45.31 27.2538 45.4548C26.898 45.5996 26.5857 45.8041 26.3167 46.0852C26.0564 46.3493 25.8482 46.673 25.692 47.0478C25.5445 47.4141 25.4751 47.8315 25.4751 48.3085C25.4751 48.7856 25.5445 49.1859 25.692 49.5693C25.8482 49.9441 26.0564 50.2763 26.3167 50.5489C26.5857 50.813 26.898 51.0174 27.2538 51.1622C27.6182 51.307 28.0087 51.3752 28.4252 51.3752Z" fill="#FF6F00"/>
<path d="M3.56616 69V59.7233L4.14751 60.2941H0.0780945V58.2667H9.56183V60.2941H5.50109L6.06508 59.7233V69H3.56616ZM13.4751 62.5941H18.7419V64.5278H13.4751V62.5941ZM13.6659 67.0067H19.6182V69H11.1497V58.2667H19.41V60.26H13.6659V67.0067ZM20.5987 58.2667H23.5228L25.7874 61.5207L28.0521 58.2667H31.0195L27.384 63.4033L31.3232 69H28.3384L25.7961 65.4393L23.2798 69H20.3558L24.2603 63.5141L20.6074 58.2667H20.5987ZM39.9653 58.2667H42.4989V69H39.9653V58.2667ZM35.0022 69H32.4686V58.2667H35.0022V69ZM40.1562 64.5959H34.8113V62.4918H40.1562V64.5959ZM45.2408 69V58.2667H47.7571V65.2604L52.9718 58.2667H55.3492V69H52.8503V62.0233L47.6356 69H45.2495H45.2408ZM65.1453 69L61.744 63.8293L63.7918 62.6196L68.026 69H65.154H65.1453ZM58.0391 69V58.2667H60.5553V69H58.0391ZM59.8178 64.6726V62.6026H63.6269V64.6726H59.8178ZM64.0174 63.9059L61.692 63.6333L65.2408 58.2667H67.9132L64.026 63.9059H64.0174ZM67.7397 69L72.6161 58.2667H75.115L80 69H77.3449L73.3449 59.5274H74.3427L70.3254 69H67.731H67.7397ZM70.1779 66.7L70.846 64.8174H76.4686L77.154 66.7H70.1692H70.1779Z" fill="#F8F8F8"/>
</g>
<defs>
<clipPath id="clip0_1137_2534">
<rect width="80" height="69" fill="white"/>
</clipPath>
</defs>
</svg>
