<svg width="80" height="69" viewBox="0 0 80 69" fill="none" xmlns="http://www.w3.org/2000/svg">
<g clip-path="url(#clip0_1137_2433)">
<path fill-rule="evenodd" clip-rule="evenodd" d="M42.1322 38.657L42.9738 18.613C43.2862 18.9196 43.6332 19.1837 44.0236 19.3882L43.6939 38.9296H44.0757L45.1342 19.8056C45.4639 19.8822 45.8023 19.9163 46.1493 19.9163C47.607 19.9163 48.9084 19.2263 49.724 18.1615L50.071 20.9981C49.7327 21.5774 49.455 22.2163 49.2294 22.8552C47.4595 27.8385 46.3489 32.0807 45.8543 37.3452C45.8023 37.8989 45.8717 38.4356 46.0452 38.9296H47.0864C46.8782 38.4696 46.774 37.967 46.8261 37.4304C47.3206 32.1233 48.3011 28.3837 50.1491 23.1704C50.8085 21.3219 51.7803 19.6011 53.7845 19.6011H67.2155C69.211 19.6011 70.8508 21.2026 70.8508 23.1704V32.66H71.9007C72.9592 32.66 73.8355 33.5119 73.8355 34.5596V39.1085C73.8355 40.1478 72.9679 41.0082 71.9007 41.0082H45.5854C44.0236 41.0082 42.5747 40.02 42.0975 38.657H42.1322ZM56.4481 41.647H64.6473V43.027H56.4481V41.647ZM23.0443 22.293H23.4087V5.47741H23.4261L25.3175 0H26.8879L28.3455 4.94074L27.1222 23L27.8336 23.9285H36.4232L38.1758 22.3015H39.3992L34.9742 28.5967H27.4953L23.0703 22.3015H23.0443V22.293ZM24.285 22.293H25.2221L24.285 13.6467V22.293ZM46.1493 12.1219C44.2232 12.1219 42.6615 13.6552 42.6615 15.5463C42.6615 17.4374 44.2232 18.9707 46.1493 18.9707C48.0755 18.9707 49.6372 17.4374 49.6372 15.5463C49.6372 13.6552 48.0755 12.1219 46.1493 12.1219ZM44.0323 11.6874C44.5182 11.4319 45.0561 11.2615 45.6374 11.1933L27.903 0.775185L28.2935 2.09556L44.0323 11.6874ZM41.6897 15.5463C41.6897 13.9363 42.5747 12.5307 43.8848 11.7641L28.7013 3.49259L29.1004 4.85556L29.031 5.85222L41.681 15.5463H41.6897ZM42.3318 44.0067H43.7373V53.8541H36.0588C39.5814 51.52 41.1865 49.1519 42.3231 44.0067H42.3318ZM54.7649 21.2537C53.1598 21.2537 52.3703 22.6337 51.841 24.1244C50.3574 28.3241 50.2272 29.8148 49.8281 34.0826C49.6806 35.6585 51.1469 36.9533 52.752 36.9533H61.2375C66.6081 36.8937 68.621 32.1404 68.4995 30.2663V24.1244C68.4995 22.5485 67.1807 21.2537 65.5756 21.2537H54.7649ZM60.5173 46.0511C62.027 46.0511 63.2504 47.2522 63.2504 48.7344C63.2504 50.2167 62.027 51.4178 60.5173 51.4178C59.0077 51.4178 57.7843 50.2167 57.7843 48.7344C57.7843 47.2522 59.0077 46.0511 60.5173 46.0511ZM71.1892 46.0511C72.6989 46.0511 73.9222 47.2522 73.9222 48.7344C73.9222 50.2167 72.6989 51.4178 71.1892 51.4178C69.6795 51.4178 68.4562 50.2167 68.4562 48.7344C68.4562 47.2522 69.6795 46.0511 71.1892 46.0511ZM49.9149 46.0511C51.4245 46.0511 52.6479 47.2522 52.6479 48.7344C52.6479 50.2167 51.4245 51.4178 49.9149 51.4178C48.4052 51.4178 47.1818 50.2167 47.1818 48.7344C47.1818 47.2522 48.4052 46.0511 49.9149 46.0511ZM49.3509 43.6063C46.479 43.6063 44.1278 45.9148 44.1278 48.7344C44.1278 51.5541 46.479 53.8626 49.3509 53.8626H71.7618C74.6337 53.8626 76.985 51.5541 76.985 48.7344C76.985 45.9148 74.6337 43.6063 71.7618 43.6063H49.3509ZM49.8888 44.9437C47.5723 44.9437 45.6721 46.6474 45.6721 48.7344C45.6721 50.8215 47.5723 52.5252 49.8888 52.5252H71.2239C73.5405 52.5252 75.4406 50.8215 75.4406 48.7344C75.4406 46.6474 73.5405 44.9437 71.2239 44.9437H49.8888Z" fill="#323232"/>
<path d="M60.5694 51.537C62.1267 51.537 63.3892 50.2975 63.3892 48.7685C63.3892 47.2395 62.1267 46 60.5694 46C59.0121 46 57.7496 47.2395 57.7496 48.7685C57.7496 50.2975 59.0121 51.537 60.5694 51.537Z" fill="#FF6F00"/>
<path d="M0 53.6667V42.9333H4.99756C5.99534 42.9333 6.85429 43.0952 7.57443 43.4104C8.30324 43.7256 8.8672 44.1856 9.25763 44.7904C9.65674 45.3867 9.84762 46.0852 9.84762 46.903C9.84762 47.7207 9.64807 48.4107 9.25763 49.007C8.85852 49.6033 8.30324 50.0633 7.57443 50.387C6.85429 50.7022 5.99534 50.8641 4.99756 50.8641H1.71791L3.08877 49.5437V53.6667H0ZM3.08877 49.8674L1.71791 48.4704H4.80668C5.44873 48.4704 5.9346 48.3341 6.24695 48.053C6.56797 47.7804 6.73282 47.397 6.73282 46.903C6.73282 46.4089 6.56797 46.017 6.24695 45.7359C5.9346 45.4633 5.4574 45.3185 4.80668 45.3185H1.71791L3.08877 43.9215V49.8589V49.8674ZM11.3573 53.6667V42.9333H16.3549C17.3526 42.9333 18.2116 43.0952 18.9317 43.4104C19.6605 43.7256 20.2245 44.1856 20.6149 44.7904C21.014 45.3867 21.2049 46.0852 21.2049 46.903C21.2049 47.7207 21.0054 48.4107 20.6149 49.007C20.2158 49.5863 19.6605 50.0378 18.9317 50.353C18.2116 50.6596 17.3526 50.813 16.3549 50.813H13.0752L14.4461 49.5437V53.6667H11.3573ZM18.1162 53.6667L15.4005 49.7567H18.6975L21.4305 53.6667H18.1162ZM14.4461 49.8674L13.0752 48.4704H16.164C16.806 48.4704 17.2919 48.3341 17.6043 48.053C17.9253 47.7804 18.0901 47.397 18.0901 46.903C18.0901 46.4089 17.9253 46.017 17.6043 45.7359C17.2919 45.4633 16.8147 45.3185 16.164 45.3185H13.0752L14.4461 43.9215V49.8589V49.8674ZM28.4236 53.8881C27.5473 53.8881 26.7404 53.7519 26.0029 53.4707C25.2654 53.1981 24.6147 52.8063 24.0681 52.3037C23.5302 51.7926 23.105 51.1963 22.8014 50.5233C22.4977 49.8504 22.3502 49.1093 22.3502 48.3C22.3502 47.4907 22.4977 46.7496 22.8014 46.0767C23.105 45.4037 23.5215 44.8159 24.0681 44.3133C24.6234 43.8022 25.2654 43.4104 26.0029 43.1293C26.7404 42.8567 27.5473 42.7119 28.4236 42.7119C29.2999 42.7119 30.1155 42.8482 30.8443 43.1293C31.5818 43.4019 32.2238 43.8022 32.7618 44.3133C33.2997 44.8159 33.7249 45.4037 34.0285 46.0767C34.3409 46.7496 34.497 47.4907 34.497 48.3C34.497 49.1093 34.3409 49.8504 34.0285 50.5404C33.7249 51.2133 33.3084 51.8011 32.7618 52.3037C32.2238 52.8063 31.5818 53.1896 30.8443 53.4707C30.1155 53.7433 29.3086 53.8881 28.4236 53.8881ZM28.4236 51.3752C28.8401 51.3752 29.2218 51.307 29.5776 51.1622C29.942 51.0174 30.2543 50.813 30.5146 50.5489C30.7836 50.2763 30.9918 49.9441 31.1393 49.5693C31.2955 49.1944 31.3736 48.7685 31.3736 48.3085C31.3736 47.8485 31.2955 47.4226 31.1393 47.0478C30.9918 46.673 30.7836 46.3493 30.5146 46.0852C30.2543 45.8126 29.942 45.5996 29.5776 45.4548C29.2218 45.31 28.8401 45.2419 28.4236 45.2419C28.0072 45.2419 27.6167 45.31 27.2523 45.4548C26.8966 45.5996 26.5842 45.8041 26.3153 46.0852C26.055 46.3493 25.8468 46.673 25.6906 47.0478C25.5431 47.4141 25.4737 47.8315 25.4737 48.3085C25.4737 48.7856 25.5431 49.1859 25.6906 49.5693C25.8468 49.9441 26.055 50.2763 26.3153 50.5489C26.5842 50.813 26.8966 51.0174 27.2523 51.1622C27.6167 51.307 28.0072 51.3752 28.4236 51.3752Z" fill="#FF6F00"/>
<path d="M3.56598 69V59.7233L4.14729 60.2941H0.0780945V58.2667H9.56131V60.2941H5.50079L6.06475 59.7233V69H3.56598ZM13.4743 62.5941H18.7409V64.5278H13.4743V62.5941ZM13.6652 67.0067H19.6172V69H11.1491V58.2667H19.4089V60.26H13.6652V67.0067ZM20.5976 58.2667H23.5215L25.786 61.5207L28.0506 58.2667H31.0179L27.3825 63.4033L31.3215 69H28.3369L25.7947 65.4393L23.2786 69H20.3547L24.259 63.5141L20.6063 58.2667H20.5976ZM39.9631 58.2667H42.4966V69H39.9631V58.2667ZM35.0003 69H32.4668V58.2667H35.0003V69ZM40.154 64.5959H34.8094V62.4919H40.154V64.5959ZM45.2383 69V58.2667H47.7545V65.2604L52.9689 58.2667H55.3463V69H52.8475V62.0233L47.633 69H45.247H45.2383ZM65.1418 69L61.7407 63.8293L63.7883 62.6196L68.0224 69H65.1505H65.1418ZM58.0359 69V58.2667H60.5521V69H58.0359ZM59.8146 64.6726V62.6026H63.6235V64.6726H59.8146ZM64.0139 63.9059L61.6886 63.6333L65.2373 58.2667H67.9096L64.0226 63.9059H64.0139ZM67.736 69L72.6121 58.2667H75.1109L79.9957 69H77.3407L73.3409 59.5274H74.3387L70.3216 69H67.7274H67.736ZM70.1741 66.7L70.8422 64.8174H76.4644L77.1498 66.7H70.1654H70.1741Z" fill="#323232"/>
</g>
<defs>
<clipPath id="clip0_1137_2433">
<rect width="79.9957" height="69" fill="white"/>
</clipPath>
</defs>
</svg>
