<svg width="71" height="71" viewBox="0 0 71 71" fill="none" xmlns="http://www.w3.org/2000/svg">
<circle cx="35.5" cy="35.5" r="35" stroke="#FF6F00"/>
<path d="M25 47.0623C25 43.3086 27.6672 40.1113 31.2921 39.5197L31.6186 39.4664C34.5212 38.9927 37.4788 38.9927 40.3814 39.4664L40.7079 39.5197C44.3328 40.1113 47 43.3086 47 47.0623C47 48.6847 45.7138 50 44.1272 50H27.8728C26.2862 50 25 48.6847 25 47.0623Z" stroke="#FF6F00" stroke-width="1.5"/>
<path d="M42.4167 28.125C42.4167 31.5077 39.5439 34.25 36 34.25C32.4562 34.25 29.5834 31.5077 29.5834 28.125C29.5834 24.7423 32.4562 22 36 22C39.5439 22 42.4167 24.7423 42.4167 28.125Z" stroke="#FF6F00" stroke-width="1.5"/>
</svg>
