<svg width="29" height="30" viewBox="0 0 29 30" fill="none" xmlns="http://www.w3.org/2000/svg">
<path d="M27.1457 21.466V25.38C27.1471 25.7434 27.0754 26.1031 26.9352 26.436C26.7949 26.7689 26.5892 27.0678 26.3313 27.3134C26.0733 27.559 25.7688 27.7461 25.4371 27.8625C25.1055 27.9789 24.7541 28.0221 24.4055 27.9894C20.5375 27.5532 16.822 26.1813 13.5576 23.984C10.5205 21.9809 7.94556 19.3083 6.01566 16.1559C3.89131 12.7523 2.56929 8.8771 2.15669 4.84433C2.12528 4.48355 2.16659 4.11992 2.27799 3.77661C2.38939 3.43331 2.56844 3.11783 2.80374 2.85029C3.03905 2.58274 3.32545 2.36897 3.6447 2.2226C3.96396 2.07623 4.30909 2.00047 4.6581 2.00013H8.42908C9.03911 1.99389 9.63051 2.21811 10.093 2.63098C10.5556 3.04386 10.8577 3.61721 10.9431 4.24418C11.1022 5.49676 11.3974 6.72664 11.823 7.91034C11.9921 8.37732 12.0287 8.88483 11.9284 9.37273C11.8282 9.86064 11.5953 10.3085 11.2573 10.6632L9.66094 12.3202C11.4503 15.5865 14.056 18.291 17.2029 20.1483L18.7993 18.4913C19.141 18.1405 19.5725 17.8988 20.0426 17.7947C20.5127 17.6907 21.0016 17.7287 21.4515 17.9042C22.592 18.3459 23.7769 18.6523 24.9837 18.8175C25.5943 18.9069 26.1519 19.2261 26.5506 19.7145C26.9492 20.2028 27.161 20.8261 27.1457 21.466Z" stroke="#FF6F00" stroke-width="3" stroke-linecap="round" stroke-linejoin="round"/>
</svg>
