<svg width="25" height="29" viewBox="0 0 25 29" fill="none" xmlns="http://www.w3.org/2000/svg">
<path d="M23.375 11.93C23.375 20.2808 12.5 27.4387 12.5 27.4387C12.5 27.4387 1.625 20.2808 1.625 11.93C1.625 9.08237 2.77076 6.35141 4.81021 4.33786C6.84967 2.32431 9.61577 1.19312 12.5 1.19312C15.3842 1.19312 18.1503 2.32431 20.1898 4.33786C22.2292 6.35141 23.375 9.08237 23.375 11.93Z" stroke="#FF6F00" stroke-width="2" stroke-linecap="round" stroke-linejoin="round"/>
<path d="M12.5 15.5089C14.502 15.5089 16.125 13.9066 16.125 11.93C16.125 9.95336 14.502 8.35101 12.5 8.35101C10.498 8.35101 8.875 9.95336 8.875 11.93C8.875 13.9066 10.498 15.5089 12.5 15.5089Z" stroke="#FF6F00" stroke-width="2" stroke-linecap="round" stroke-linejoin="round"/>
</svg>
