<svg width="27" height="21" viewBox="0 0 27 21" fill="none" xmlns="http://www.w3.org/2000/svg">
<path d="M22.8031 0.669522C23.2696 0.235339 23.8905 -0.00469476 24.5347 6.9591e-05C25.1789 0.00483395 25.796 0.254025 26.2558 0.695059C26.7156 1.13609 26.9821 1.73448 26.9991 2.36394C27.0162 2.9934 26.7823 3.60472 26.347 4.06889L13.1316 20.224C12.9044 20.4632 12.6301 20.6552 12.3252 20.7885C12.0203 20.9217 11.6911 20.9935 11.3572 20.9996C11.0232 21.0056 10.6915 20.9458 10.3818 20.8236C10.072 20.7015 9.79068 20.5196 9.55453 20.2887L0.790633 11.7223C0.546573 11.5 0.350819 11.232 0.215048 10.9341C0.0792775 10.6363 0.00627153 10.3147 0.000386591 9.98871C-0.00549835 9.66268 0.0558585 9.33884 0.180795 9.0365C0.305732 8.73415 0.491691 8.45951 0.727576 8.22894C0.963462 7.99837 1.24444 7.8166 1.55376 7.69448C1.86307 7.57236 2.19438 7.51238 2.52792 7.51813C2.86146 7.52389 3.1904 7.59525 3.49512 7.72796C3.79983 7.86067 4.07407 8.05201 4.30149 8.29057L11.2371 15.0666L22.7401 0.740748C22.7608 0.715822 22.7829 0.692043 22.8064 0.669522H22.8031Z" fill="#FF6F00"/>
</svg>
