<svg width="23" height="15" viewBox="0 0 23 15" fill="none" xmlns="http://www.w3.org/2000/svg">
<path d="M23 2.5C23 1.83696 22.6971 1.20107 22.1579 0.732233C21.6188 0.263392 20.8875 0 20.125 0H2.875C2.1125 0 1.38124 0.263392 0.842068 0.732233C0.3029 1.20107 0 1.83696 0 2.5V12.5C0 13.163 0.3029 13.7989 0.842068 14.2678C1.38124 14.7366 2.1125 15 2.875 15H20.125C20.8875 15 21.6188 14.7366 22.1579 14.2678C22.6971 13.7989 23 13.163 23 12.5V2.5ZM20.125 1.25C20.5062 1.25 20.8719 1.3817 21.1415 1.61612C21.411 1.85054 21.5625 2.16848 21.5625 2.5V2.77125L11.5 8.02125L1.4375 2.77125V2.5C1.4375 2.16848 1.58895 1.85054 1.85853 1.61612C2.12812 1.3817 2.49375 1.25 2.875 1.25H20.125ZM1.4375 4.22875L8.20525 7.76L1.4375 11.3812V4.22875ZM1.48637 12.8237L9.59387 8.485L11.5 9.47875L13.4061 8.485L21.5136 12.8225C21.4319 13.0885 21.2515 13.3236 21.0005 13.4913C20.7494 13.659 20.4416 13.75 20.125 13.75H2.875C2.55857 13.75 2.25097 13.6593 1.9999 13.4918C1.74884 13.3243 1.56833 13.0895 1.48637 12.8237ZM21.5625 11.3812L14.7947 7.76L21.5625 4.22875V11.3812Z" fill="#FF6F00"/>
</svg>
