<svg width="29" height="20" viewBox="0 0 29 20" fill="none" xmlns="http://www.w3.org/2000/svg">
<path d="M2.48334 0H14.4833C15.0138 0 15.5225 0.210714 15.8976 0.585786C16.2726 0.960859 16.4833 1.46957 16.4833 2C16.4833 2.53043 16.2726 3.03914 15.8976 3.41421C15.5225 3.78929 15.0138 4 14.4833 4H2.48334C1.9529 4 1.4442 3.78929 1.06912 3.41421C0.694051 3.03914 0.483337 2.53043 0.483337 2C0.483337 1.46957 0.694051 0.960859 1.06912 0.585786C1.4442 0.210714 1.9529 0 2.48334 0ZM2.48334 16H18.4833C19.0138 16 19.5225 16.2107 19.8976 16.5858C20.2726 16.9609 20.4833 17.4696 20.4833 18C20.4833 18.5304 20.2726 19.0391 19.8976 19.4142C19.5225 19.7893 19.0138 20 18.4833 20H2.48334C1.9529 20 1.4442 19.7893 1.06912 19.4142C0.694051 19.0391 0.483337 18.5304 0.483337 18C0.483337 17.4696 0.694051 16.9609 1.06912 16.5858C1.4442 16.2107 1.9529 16 2.48334 16ZM2.48334 8H26.4833C27.0138 8 27.5225 8.21071 27.8976 8.58579C28.2726 8.96086 28.4833 9.46957 28.4833 10C28.4833 10.5304 28.2726 11.0391 27.8976 11.4142C27.5225 11.7893 27.0138 12 26.4833 12H2.48334C1.9529 12 1.4442 11.7893 1.06912 11.4142C0.694051 11.0391 0.483337 10.5304 0.483337 10C0.483337 9.46957 0.694051 8.96086 1.06912 8.58579C1.4442 8.21071 1.9529 8 2.48334 8Z" fill="#FF6F00"/>
</svg>
