<svg width="17" height="17" viewBox="0 0 17 17" fill="none" xmlns="http://www.w3.org/2000/svg">
<path d="M15.9579 12.2304V14.4885C15.9587 14.6981 15.9185 14.9056 15.84 15.0977C15.7614 15.2898 15.6463 15.4622 15.5018 15.6039C15.3573 15.7456 15.1868 15.8535 15.0011 15.9207C14.8154 15.9878 14.6186 16.0128 14.4233 15.9939C12.2573 15.7422 10.1766 14.9508 8.34855 13.6831C6.64776 12.5274 5.2058 10.9855 4.12505 9.16689C2.93542 7.20324 2.19508 4.96756 1.96403 2.64096C1.94644 2.43282 1.96957 2.22303 2.03195 2.02497C2.09434 1.82691 2.19461 1.6449 2.32638 1.49055C2.45815 1.33619 2.61853 1.21287 2.79732 1.12843C2.9761 1.04398 3.16937 1.00027 3.36482 1.00007H5.47657C5.81818 0.996478 6.14937 1.12583 6.40839 1.36403C6.66741 1.60222 6.83659 1.93301 6.8844 2.29472C6.97353 3.01736 7.13883 3.72691 7.37714 4.40981C7.47185 4.67922 7.49235 4.97202 7.4362 5.2535C7.38006 5.53498 7.24964 5.79336 7.06038 5.99801L6.16641 6.95394C7.16847 8.83837 8.62762 10.3986 10.3899 11.4702L11.2839 10.5142C11.4753 10.3118 11.7169 10.1724 11.9801 10.1123C12.2434 10.0523 12.5172 10.0742 12.7691 10.1755C13.4078 10.4303 14.0713 10.6071 14.7471 10.7024C15.0891 10.754 15.4014 10.9381 15.6246 11.2199C15.8478 11.5016 15.9664 11.8612 15.9579 12.2304Z" stroke="#FF6F00" stroke-width="2" stroke-linecap="round" stroke-linejoin="round"/>
</svg>
