<svg width="17" height="16" viewBox="0 0 17 16" fill="none" xmlns="http://www.w3.org/2000/svg">
<path d="M8.00024 12.3046C8.69273 12.3046 9.37844 12.1682 10.0182 11.9032C10.658 11.6382 11.2393 11.2497 11.729 10.7601C12.2186 10.2704 12.607 9.68911 12.872 9.04934C13.137 8.40956 13.2734 7.72386 13.2734 7.03137C13.2734 6.33889 13.137 5.65318 12.872 5.01341C12.607 4.37363 12.2186 3.79232 11.729 3.30266C11.2393 2.813 10.658 2.42458 10.0182 2.15957C9.37844 1.89457 8.69273 1.75817 8.00024 1.75817C6.60171 1.75817 5.26045 2.31374 4.27153 3.30266C3.28261 4.29157 2.72705 5.63283 2.72705 7.03137C2.72705 8.42991 3.28261 9.77117 4.27153 10.7601C5.26045 11.749 6.60171 12.3046 8.00024 12.3046ZM13.5547 11.3431L16.701 14.4894C16.7849 14.5706 16.8518 14.6676 16.8978 14.7748C16.9438 14.8821 16.9679 14.9974 16.9688 15.1141C16.9698 15.2308 16.9475 15.3465 16.9032 15.4545C16.8589 15.5625 16.7936 15.6606 16.711 15.743C16.6284 15.8255 16.5303 15.8907 16.4222 15.9348C16.3142 15.9789 16.1984 16.0011 16.0818 16C15.9651 15.9989 15.8498 15.9746 15.7426 15.9284C15.6354 15.8823 15.5384 15.8153 15.4574 15.7313L12.3111 12.5849C10.8983 13.6816 9.12062 14.1987 7.34 14.0308C5.55938 13.863 3.90965 13.0229 2.72665 11.6815C1.54365 10.3401 0.916305 8.59834 0.972325 6.81071C1.02835 5.02308 1.76352 3.32398 3.02819 2.05931C4.29286 0.794647 5.99195 0.059473 7.77958 0.00345308C9.56721 -0.0525668 11.309 0.574778 12.6504 1.75778C13.9918 2.94078 14.8319 4.59051 14.9997 6.37113C15.1675 8.15175 14.6505 9.9294 13.5538 11.3422L13.5547 11.3431Z" fill="#FF6F00"/>
</svg>
