<svg width="196" height="32" viewBox="0 0 196 32" fill="none" xmlns="http://www.w3.org/2000/svg">
<path d="M15.0776 2.2022C15.4203 1.38396 16.5797 1.38396 16.9224 2.2022L20.0162 9.58895C20.1604 9.93318 20.4843 10.1685 20.8562 10.1992L28.8375 10.859C29.7216 10.9321 30.0798 12.0347 29.4075 12.6135L23.3383 17.8385C23.0555 18.082 22.9318 18.4627 23.0175 18.826L24.8564 26.6205C25.06 27.4839 24.1221 28.1653 23.3639 27.7048L16.5191 23.5473C16.2002 23.3536 15.7998 23.3536 15.4809 23.5473L8.63606 27.7048C7.87786 28.1653 6.93996 27.4839 7.14365 26.6205L8.9825 18.826C9.06819 18.4627 8.94448 18.082 8.66165 17.8385L2.59249 12.6135C1.9202 12.0347 2.27844 10.9321 3.16254 10.859L11.1438 10.1992C11.5157 10.1685 11.8396 9.93318 11.9838 9.58895L15.0776 2.2022Z" fill="#FF6F00"/>
<path d="M56.0776 2.2022C56.4203 1.38396 57.5797 1.38396 57.9224 2.2022L61.0162 9.58895C61.1604 9.93318 61.4843 10.1685 61.8562 10.1992L69.8375 10.859C70.7216 10.9321 71.0798 12.0347 70.4075 12.6135L64.3383 17.8385C64.0555 18.082 63.9318 18.4627 64.0175 18.826L65.8564 26.6205C66.06 27.4839 65.1221 28.1653 64.3639 27.7048L57.5191 23.5473C57.2002 23.3536 56.7998 23.3536 56.4809 23.5473L49.6361 27.7048C48.8779 28.1653 47.94 27.4839 48.1436 26.6205L49.9825 18.826C50.0682 18.4627 49.9445 18.082 49.6617 17.8385L43.5925 12.6135C42.9202 12.0347 43.2784 10.9321 44.1625 10.859L52.1438 10.1992C52.5157 10.1685 52.8396 9.93318 52.9838 9.58895L56.0776 2.2022Z" fill="#FF6F00"/>
<path d="M97.0776 2.2022C97.4203 1.38396 98.5797 1.38396 98.9224 2.2022L102.016 9.58895C102.16 9.93318 102.484 10.1685 102.856 10.1992L110.837 10.859C111.722 10.9321 112.08 12.0347 111.408 12.6135L105.338 17.8385C105.056 18.082 104.932 18.4627 105.018 18.826L106.856 26.6205C107.06 27.4839 106.122 28.1653 105.364 27.7048L98.5191 23.5473C98.2002 23.3536 97.7998 23.3536 97.4809 23.5473L90.6361 27.7048C89.8779 28.1653 88.94 27.4839 89.1436 26.6205L90.9825 18.826C91.0682 18.4627 90.9445 18.082 90.6617 17.8385L84.5925 12.6135C83.9202 12.0347 84.2784 10.9321 85.1625 10.859L93.1438 10.1992C93.5157 10.1685 93.8396 9.93318 93.9838 9.58895L97.0776 2.2022Z" fill="#FF6F00"/>
<path d="M138.078 2.2022C138.42 1.38396 139.58 1.38396 139.922 2.2022L143.016 9.58895C143.16 9.93318 143.484 10.1685 143.856 10.1992L151.837 10.859C152.722 10.9321 153.08 12.0347 152.408 12.6135L146.338 17.8385C146.056 18.082 145.932 18.4627 146.018 18.826L147.856 26.6205C148.06 27.4839 147.122 28.1653 146.364 27.7048L139.519 23.5473C139.2 23.3536 138.8 23.3536 138.481 23.5473L131.636 27.7048C130.878 28.1653 129.94 27.4839 130.144 26.6205L131.982 18.826C132.068 18.4627 131.944 18.082 131.662 17.8385L125.592 12.6135C124.92 12.0347 125.278 10.9321 126.163 10.859L134.144 10.1992C134.516 10.1685 134.84 9.93318 134.984 9.58895L138.078 2.2022Z" fill="#FF6F00"/>
<path d="M179.078 2.2022C179.42 1.38396 180.58 1.38396 180.922 2.2022L184.016 9.58895C184.16 9.93318 184.484 10.1685 184.856 10.1992L192.837 10.859C193.722 10.9321 194.08 12.0347 193.408 12.6135L187.338 17.8385C187.056 18.082 186.932 18.4627 187.018 18.826L188.856 26.6205C189.06 27.4839 188.122 28.1653 187.364 27.7048L180.519 23.5473C180.2 23.3536 179.8 23.3536 179.481 23.5473L172.636 27.7048C171.878 28.1653 170.94 27.4839 171.144 26.6205L172.982 18.826C173.068 18.4627 172.944 18.082 172.662 17.8385L166.592 12.6135C165.92 12.0347 166.278 10.9321 167.163 10.859L175.144 10.1992C175.516 10.1685 175.84 9.93318 175.984 9.58895L179.078 2.2022Z" fill="#FF6F00"/>
</svg>
