<svg width="27" height="28" viewBox="0 0 27 28" fill="none" xmlns="http://www.w3.org/2000/svg">
<path fill-rule="evenodd" clip-rule="evenodd" d="M13.5613 26.9063H13.5558C11.305 26.9055 9.09342 26.3408 7.12915 25.2694L0 27.1395L1.90788 20.1707C0.731007 18.1312 0.111742 15.8177 0.112751 13.4475C0.115701 6.03259 6.14862 0 13.5612 0C17.1588 0.00155268 20.5354 1.40208 23.0744 3.94409C25.6134 6.48598 27.011 9.86476 27.0096 13.4581C27.0066 20.8713 20.9761 26.9032 13.5613 26.9063ZM7.46 22.8349L7.86817 23.0771C9.58434 24.0955 11.5516 24.6344 13.5573 24.6352H13.5619C19.7227 24.6352 24.737 19.6208 24.7394 13.4574C24.7406 10.4707 23.5791 7.66238 21.4687 5.54955C19.3583 3.43673 16.5518 2.2726 13.5663 2.27157C7.40069 2.27157 2.38634 7.28546 2.38389 13.4484C2.38303 15.5604 2.97398 17.6173 4.09289 19.397L4.35866 19.8199L3.22946 23.9446L7.46 22.8349ZM19.876 16.3538C20.1103 16.4671 20.2686 16.5436 20.3362 16.6564C20.4201 16.7965 20.4201 17.4693 20.1403 18.2543C19.8601 19.0392 18.5177 19.7556 17.872 19.852C17.2931 19.9386 16.5605 19.9747 15.7556 19.7189C15.2675 19.5641 14.6417 19.3573 13.84 19.0111C10.6898 17.6508 8.56088 14.5976 8.15852 14.0206C8.13034 13.9801 8.11062 13.9519 8.09963 13.9372L8.09691 13.9335C7.91908 13.6963 6.72754 12.1065 6.72754 10.4611C6.72754 8.91325 7.48786 8.10195 7.83783 7.72851C7.86181 7.70293 7.88386 7.6794 7.90361 7.65782C8.21161 7.32141 8.57568 7.2373 8.79968 7.2373C9.02367 7.2373 9.24793 7.23938 9.44371 7.24921C9.46787 7.25042 9.493 7.25027 9.51898 7.25012C9.7148 7.24897 9.95892 7.24754 10.1998 7.82603C10.2924 8.04866 10.428 8.3787 10.571 8.7268C10.8601 9.43075 11.1796 10.2085 11.2358 10.3211C11.3198 10.4893 11.3758 10.6854 11.2638 10.9098C11.247 10.9434 11.2314 10.9752 11.2166 11.0055C11.1325 11.1773 11.0706 11.3036 10.9278 11.4703C10.8716 11.5359 10.8136 11.6065 10.7556 11.6772C10.64 11.818 10.5244 11.9588 10.4237 12.0591C10.2555 12.2266 10.0804 12.4084 10.2764 12.7448C10.4724 13.0812 11.1468 14.1816 12.1458 15.0726C13.2196 16.0304 14.1529 16.4353 14.6259 16.6405C14.7183 16.6805 14.7931 16.713 14.848 16.7405C15.1839 16.9087 15.38 16.8806 15.576 16.6564C15.772 16.4321 16.416 15.6751 16.64 15.3388C16.864 15.0025 17.0881 15.0585 17.396 15.1706C17.7041 15.2829 19.3562 16.0957 19.6922 16.2639C19.7578 16.2967 19.8191 16.3263 19.876 16.3538Z" fill="#F0F0EF"/>
</svg>
