<svg width="20" height="17" viewBox="0 0 20 17" fill="none" xmlns="http://www.w3.org/2000/svg">
<g clip-path="url(#clip0_1137_2472)">
<path d="M17.4991 7.08333C17.4991 12.0417 9.99946 16.2917 9.99946 16.2917C9.99946 16.2917 2.49986 12.0417 2.49986 7.08333C2.49986 5.39257 3.29 3.77107 4.69644 2.57552C6.10289 1.37998 8.01044 0.708328 9.99946 0.708328C11.9885 0.708328 13.896 1.37998 15.3025 2.57552C16.7089 3.77107 17.4991 5.39257 17.4991 7.08333Z" stroke="#FF6F00" stroke-width="2" stroke-linecap="round" stroke-linejoin="round"/>
<path d="M9.99945 9.20833C11.3801 9.20833 12.4993 8.25693 12.4993 7.08333C12.4993 5.90972 11.3801 4.95833 9.99945 4.95833C8.61882 4.95833 7.49959 5.90972 7.49959 7.08333C7.49959 8.25693 8.61882 9.20833 9.99945 9.20833Z" stroke="#FF6F00" stroke-width="2" stroke-linecap="round" stroke-linejoin="round"/>
</g>
<defs>
<clipPath id="clip0_1137_2472">
<rect width="19.9989" height="17" fill="white"/>
</clipPath>
</defs>
</svg>
