<svg width="50" height="50" viewBox="0 0 50 50" fill="none" xmlns="http://www.w3.org/2000/svg">
<path d="M8.33301 46.4433C8.33305 46.6494 8.39424 46.8509 8.50884 47.0222C8.62343 47.1935 8.78627 47.327 8.97676 47.4057C9.16724 47.4845 9.3768 47.5049 9.57892 47.4645C9.78103 47.4241 9.96661 47.3246 10.1122 47.1787L12.4997 44.7912L15.9288 48.2204C16.0256 48.3174 16.1406 48.3943 16.2671 48.4468C16.3937 48.4994 16.5293 48.5264 16.6663 48.5264C16.8034 48.5264 16.939 48.4994 17.0656 48.4468C17.1921 48.3943 17.3071 48.3174 17.4038 48.2204L20.833 44.7912L24.2622 48.2204C24.3589 48.3174 24.4739 48.3943 24.6004 48.4468C24.727 48.4994 24.8627 48.5264 24.9997 48.5264C25.1367 48.5264 25.2724 48.4994 25.3989 48.4468C25.5255 48.3943 25.6404 48.3174 25.7372 48.2204L29.1663 44.7912L32.5955 48.2204C32.6923 48.3174 32.8072 48.3943 32.9338 48.4468C33.0603 48.4994 33.196 48.5264 33.333 48.5264C33.47 48.5264 33.6057 48.4994 33.7322 48.4468C33.8588 48.3943 33.9737 48.3174 34.0705 48.2204L37.4997 44.7912L39.8872 47.1787C40.0327 47.3246 40.2183 47.4241 40.4204 47.4645C40.6225 47.5049 40.8321 47.4845 41.0226 47.4057C41.2131 47.327 41.3759 47.1935 41.4905 47.0222C41.6051 46.8509 41.6663 46.6494 41.6663 46.4433V3.55577C41.6663 3.34965 41.6051 3.14818 41.4905 2.97686C41.3759 2.80553 41.2131 2.67206 41.0226 2.59332C40.8321 2.51458 40.6225 2.49413 40.4204 2.53454C40.2183 2.57496 40.0327 2.67442 39.8872 2.82035L37.4997 5.20785L34.0705 1.77868C33.9737 1.68168 33.8588 1.60471 33.7322 1.5522C33.6057 1.49969 33.47 1.47266 33.333 1.47266C33.196 1.47266 33.0603 1.49969 32.9338 1.5522C32.8072 1.60471 32.6923 1.68168 32.5955 1.77868L29.1663 5.20785L25.7372 1.77868C25.6404 1.68168 25.5255 1.60471 25.3989 1.5522C25.2724 1.49969 25.1367 1.47266 24.9997 1.47266C24.8627 1.47266 24.727 1.49969 24.6004 1.5522C24.4739 1.60471 24.3589 1.68168 24.2622 1.77868L20.833 5.20785L17.4038 1.77868C17.3071 1.68168 17.1921 1.60471 17.0656 1.5522C16.939 1.49969 16.8034 1.47266 16.6663 1.47266C16.5293 1.47266 16.3937 1.49969 16.2671 1.5522C16.1406 1.60471 16.0256 1.68168 15.9288 1.77868L12.4997 5.20785L10.1122 2.82035C9.96661 2.67442 9.78103 2.57496 9.57892 2.53454C9.3768 2.49413 9.16724 2.51458 8.97676 2.59332C8.78627 2.67206 8.62343 2.80553 8.50884 2.97686C8.39424 3.14818 8.33305 3.34965 8.33301 3.55577V46.4433Z" stroke="#FF6F00" stroke-width="2" stroke-linecap="round" stroke-linejoin="round"/>
<path d="M14.583 13.542H31.2497" stroke="#FF6F00" stroke-width="2" stroke-linecap="round" stroke-linejoin="round"/>
<path d="M14.583 19.792H22.9163" stroke="#FF6F00" stroke-width="2" stroke-linecap="round" stroke-linejoin="round"/>
<path d="M14.583 26.042H22.9163" stroke="#FF6F00" stroke-width="2" stroke-linecap="round" stroke-linejoin="round"/>
<path d="M14.583 32.292H20.833" stroke="#FF6F00" stroke-width="2" stroke-linecap="round" stroke-linejoin="round"/>
<path d="M31.25 36.2792V38.5417" stroke="#FF6F00" stroke-width="2" stroke-linecap="round" stroke-linejoin="round"/>
<path d="M33.333 21.875V24.1417" stroke="#FF6F00" stroke-width="2" stroke-linecap="round" stroke-linejoin="round"/>
<path d="M29.167 33.333C29.167 33.9511 29.3503 34.5553 29.6937 35.0692C30.037 35.5831 30.5251 35.9836 31.0961 36.2201C31.6671 36.4567 32.2955 36.5185 32.9017 36.398C33.5078 36.2774 34.0647 35.9798 34.5017 35.5427C34.9387 35.1057 35.2364 34.5489 35.3569 33.9427C35.4775 33.3365 35.4156 32.7081 35.1791 32.1371C34.9426 31.5661 34.5421 31.078 34.0282 30.7347C33.5142 30.3913 32.9101 30.208 32.292 30.208C31.6739 30.208 31.0697 30.0247 30.5558 29.6814C30.0419 29.338 29.6414 28.8499 29.4049 28.2789C29.1683 27.7079 29.1065 27.0795 29.227 26.4734C29.3476 25.8672 29.6452 25.3103 30.0823 24.8733C30.5193 24.4363 31.0761 24.1386 31.6823 24.0181C32.2885 23.8975 32.9169 23.9594 33.4879 24.1959C34.0589 24.4324 34.547 24.8329 34.8903 25.3469C35.2337 25.8608 35.417 26.4649 35.417 27.083" stroke="#FF6F00" stroke-width="2" stroke-linecap="round" stroke-linejoin="round"/>
</svg>
