<svg width="50" height="50" viewBox="0 0 50 50" fill="none" xmlns="http://www.w3.org/2000/svg">
<g clip-path="url(#clip0_1614_4743)">
<path d="M9.12109 14.4815C11.919 8.44813 18.9586 4.16688 27.1815 4.16688C29.2953 4.16768 31.3988 4.46217 33.4315 5.04188C34.729 3.19543 36.6038 1.83295 38.7607 1.16896C38.9155 1.12591 39.0781 1.11924 39.2359 1.14948C39.3937 1.17972 39.5424 1.24605 39.6703 1.34329C39.7982 1.44053 39.9018 1.56603 39.9732 1.70999C40.0445 1.85395 40.0816 2.01246 40.0815 2.17313V8.33355C42.2916 10.27 43.962 12.7464 44.9294 15.521H46.8753C47.4278 15.521 47.9577 15.7405 48.3484 16.1312C48.7391 16.5219 48.9586 17.0518 48.9586 17.6044V23.8544C48.9586 24.4069 48.7391 24.9368 48.3484 25.3275C47.9577 25.7182 47.4278 25.9377 46.8753 25.9377H44.9273C43.8301 28.6686 41.9398 31.0081 39.5003 32.6544L41.1836 37.219C41.4554 38.0161 41.4049 38.8879 41.0427 39.6483C40.6806 40.4087 40.0355 40.9974 39.2452 41.2886C38.4549 41.5799 37.5821 41.5506 36.8131 41.2071C36.0441 40.8636 35.4399 40.2331 35.1294 39.4502L33.6586 35.4606C31.5567 36.092 29.3741 36.4142 27.1794 36.4169" stroke="#FF6F00" stroke-width="2" stroke-linecap="round" stroke-linejoin="round"/>
<path d="M35.9417 14.4854C35.8387 14.4854 35.738 14.516 35.6524 14.5732C35.5667 14.6304 35.5 14.7118 35.4605 14.8069C35.4211 14.9021 35.4108 15.0068 35.4309 15.1079C35.451 15.2089 35.5006 15.3017 35.5734 15.3745C35.6463 15.4474 35.7391 15.497 35.8401 15.5171C35.9412 15.5372 36.0459 15.5269 36.141 15.4874C36.2362 15.448 36.3176 15.3813 36.3748 15.2956C36.432 15.21 36.4626 15.1093 36.4626 15.0063C36.4628 14.9378 36.4496 14.8699 36.4235 14.8066C36.3974 14.7433 36.359 14.6858 36.3106 14.6374C36.2622 14.5889 36.2047 14.5506 36.1414 14.5245C36.0781 14.4984 36.0102 14.4851 35.9417 14.4854Z" stroke="#FF6F00" stroke-width="2" stroke-linecap="round" stroke-linejoin="round"/>
<path d="M16.667 12.402C18.8255 10.0192 21.799 8.53246 25.0003 8.23535" stroke="#FF6F00" stroke-width="2" stroke-linecap="round" stroke-linejoin="round"/>
<path d="M1.03711 21.7855C1.03711 22.338 2.13458 22.8679 4.08808 23.2586C6.04158 23.6493 8.6911 23.8688 11.4538 23.8688C14.2164 23.8688 16.866 23.6493 18.8195 23.2586C20.773 22.8679 21.8704 22.338 21.8704 21.7855C21.8704 21.2329 20.773 20.703 18.8195 20.3123C16.866 19.9216 14.2164 19.7021 11.4538 19.7021C8.6911 19.7021 6.04158 19.9216 4.08808 20.3123C2.13458 20.703 1.03711 21.2329 1.03711 21.7855Z" stroke="#FF6F00" stroke-width="2" stroke-linecap="round" stroke-linejoin="round"/>
<path d="M21.8753 21.7852V28.0352C21.8753 29.1831 17.2087 30.1185 11.4587 30.1185C5.70866 30.1185 1.04199 29.1831 1.04199 28.0352V21.7852C1.04199 22.9331 5.70658 23.8685 11.4587 23.8685C17.2107 23.8685 21.8753 22.9331 21.8753 21.7852Z" stroke="#FF6F00" stroke-width="2" stroke-linecap="round" stroke-linejoin="round"/>
<path d="M21.8753 28.0352V34.2852C21.8753 35.4331 17.2087 36.3685 11.4587 36.3685C5.70866 36.3685 1.04199 35.4331 1.04199 34.2852V28.0352C1.04199 29.1831 5.70658 30.1185 11.4587 30.1185C17.2107 30.1185 21.8753 29.1831 21.8753 28.0352Z" stroke="#FF6F00" stroke-width="2" stroke-linecap="round" stroke-linejoin="round"/>
<path d="M21.8753 34.2852V40.5352C21.8753 41.6831 17.2087 42.6185 11.4587 42.6185C5.70866 42.6185 1.04199 41.6831 1.04199 40.5352V34.2852C1.04199 35.4331 5.70658 36.3685 11.4587 36.3685C17.2107 36.3685 21.8753 35.4331 21.8753 34.2852Z" stroke="#FF6F00" stroke-width="2" stroke-linecap="round" stroke-linejoin="round"/>
<path d="M21.8753 40.5352V46.7852C21.8753 47.9331 17.2087 48.8685 11.4587 48.8685C5.70866 48.8685 1.04199 47.9331 1.04199 46.7852V40.5352C1.04199 41.6831 5.70658 42.6185 11.4587 42.6185C17.2107 42.6185 21.8753 41.6831 21.8753 40.5352Z" stroke="#FF6F00" stroke-width="2" stroke-linecap="round" stroke-linejoin="round"/>
</g>
<defs>
<clipPath id="clip0_1614_4743">
<rect width="50" height="50" fill="white"/>
</clipPath>
</defs>
</svg>
