<svg width="50" height="32" viewBox="0 0 50 32" fill="none" xmlns="http://www.w3.org/2000/svg">
<mask id="mask0_1614_4765" style="mask-type:luminance" maskUnits="userSpaceOnUse" x="0" y="0" width="50" height="32">
<path d="M50 0.027771H0V31.9722H50V0.027771Z" fill="white"/>
</mask>
<g mask="url(#mask0_1614_4765)">
<path d="M4.16667 19.4722C4.74542 19.4722 5.15042 19.2407 5.38194 18.7778C5.61347 18.3149 5.61347 17.8518 5.38194 17.3889C5.15042 16.926 4.74542 16.6944 4.16667 16.6944C3.58792 16.6944 3.18292 16.926 2.95139 17.3889C2.71986 17.8518 2.71986 18.3149 2.95139 18.7778C3.18292 19.2407 3.58792 19.4722 4.16667 19.4722ZM36.1333 18.2136C35.9875 18.0254 35.7097 17.6637 35.2972 17.1285C34.8847 16.5932 34.5847 16.2025 34.3972 15.9567C34.2083 15.7107 33.9333 15.3562 33.5722 14.8932C33.2097 14.4303 32.9028 14.0469 32.65 13.743C32.3972 13.4392 32.1042 13.0993 31.7708 12.7231C31.4375 12.3469 31.1125 11.9925 30.7944 11.6597L28.0819 14.6979C26.8806 16.0579 25.3722 16.7233 23.5569 16.6944C21.7417 16.6655 20.2542 15.9567 19.0972 14.5678C18.2725 13.5694 17.8639 12.4265 17.8711 11.1389C17.8783 9.85124 18.3015 8.71555 19.1406 7.7318L22.9819 3.26125C22.6639 3.10208 22.2944 2.98277 21.875 2.90318C21.4556 2.8236 21.1125 2.78027 20.8444 2.77305C20.5764 2.76583 20.1681 2.76943 19.6181 2.78388C19.0683 2.79832 18.7139 2.80555 18.5547 2.80555C17.2236 2.80555 16.0807 3.28304 15.1258 4.23777L11.6971 7.66666H8.33333V19.4722C8.40569 19.4722 8.55764 19.4686 8.78903 19.4614C9.02056 19.4542 9.17972 19.4542 9.26652 19.4614C9.35333 19.4686 9.49431 19.483 9.68972 19.5047C9.885 19.5265 10.0333 19.559 10.1346 19.6025C10.2358 19.6458 10.3624 19.7074 10.5143 19.7869C10.6662 19.8665 10.8 19.9642 10.9158 20.0799L17.3611 26.4167C19.0249 28.0222 20.6667 28.825 22.2875 28.825C23.4153 28.825 24.3194 28.4861 25 27.8055C25.825 28.0944 26.6389 28.0375 27.4417 27.6319C28.2444 27.2264 28.7694 26.6125 29.0153 25.7875C30.0847 25.8736 31.0042 25.5555 31.7708 24.8325C32.0597 24.5721 32.3208 24.2429 32.5528 23.845C32.7833 23.4472 32.8847 23.0819 32.8556 22.7492C33 22.8937 33.3111 22.9661 33.7889 22.9661C34.4111 22.9661 34.9681 22.8142 35.4597 22.5104C35.9514 22.2067 36.3097 21.8232 36.5347 21.3603C36.7583 20.8972 36.8458 20.38 36.7944 19.8086C36.7444 19.2371 36.5236 18.7054 36.1333 18.2136ZM39.5833 19.4722H41.6667V8.3611H39.6486L36.2417 4.45485C35.2861 3.35527 34.0639 2.80555 32.5736 2.80555H28.95C27.6625 2.80555 26.6055 3.29027 25.7806 4.25957L21.2458 9.53305C20.8403 10.0104 20.6375 10.5529 20.6375 11.1606C20.6375 11.7682 20.8333 12.3108 21.2236 12.7882C21.8458 13.5261 22.6417 13.9022 23.6111 13.9167C24.5806 13.9311 25.3833 13.5767 26.0194 12.8533L30.2083 8.12236C30.5694 7.78958 30.9569 7.63416 31.3694 7.65583C31.7819 7.6775 32.1222 7.87277 32.3889 8.2418C32.6569 8.61069 32.7181 9.01943 32.5736 9.46791C32.8056 9.74277 33.2097 10.1985 33.7889 10.835C34.3681 11.4717 34.8014 11.9636 35.0917 12.3108C35.5111 12.8317 36.1069 13.5947 36.8819 14.6003C37.6556 15.6057 38.1222 16.2169 38.2805 16.434C39.0333 17.3889 39.4681 18.4017 39.5833 19.4722ZM45.8333 19.4722C46.4125 19.4722 46.8167 19.2407 47.0486 18.7778C47.2806 18.3149 47.2806 17.8518 47.0486 17.3889C46.8167 16.926 46.4125 16.6944 45.8333 16.6944C45.2542 16.6944 44.85 16.926 44.6181 17.3889C44.3861 17.8518 44.3861 18.3149 44.6181 18.7778C44.85 19.2407 45.2542 19.4722 45.8333 19.4722ZM50 6.97222V20.8611C50 21.2372 49.8625 21.5628 49.5875 21.8376C49.3125 22.1125 48.9875 22.25 48.6111 22.25H39.1931C38.8028 23.1904 38.2083 23.9608 37.4139 24.5612C36.6181 25.1611 35.7139 25.5347 34.7 25.6792C34.2236 26.3736 33.6403 26.9625 32.9542 27.4472C32.2667 27.9319 31.525 28.2611 30.7292 28.4347C30.1222 29.2014 29.3653 29.7917 28.4611 30.2042C27.5569 30.6153 26.6278 30.793 25.6722 30.7347C24.8042 31.2278 23.8931 31.5125 22.9389 31.593C21.9833 31.6722 21.0611 31.5708 20.1708 31.2889C19.2817 31.0069 18.4353 30.6194 17.6324 30.1278C16.8294 29.6361 16.0807 29.05 15.3863 28.3694L9.15806 22.25H1.38889C1.01278 22.25 0.687219 22.1125 0.412358 21.8376C0.137497 21.5628 0 21.2372 0 20.8611V6.27777C0 5.90166 0.137497 5.5761 0.412358 5.30124C0.687219 5.02638 1.01278 4.88888 1.38889 4.88888H10.5251C10.7278 4.68638 11.0678 4.33916 11.5451 3.84722C12.0225 3.35527 12.3661 3.00805 12.576 2.80555C12.7857 2.60305 13.104 2.3136 13.5308 1.93749C13.9576 1.56138 14.3229 1.29013 14.6267 1.12374C14.9306 0.957355 15.2994 0.772913 15.7335 0.570274C16.1675 0.367774 16.616 0.226659 17.079 0.147076C17.5419 0.0674923 18.0339 0.027771 18.5547 0.027771H21.0944C22.5264 0.027771 23.8347 0.43291 25.0222 1.24305C26.2083 0.43291 27.5167 0.027771 28.95 0.027771H32.5736C33.0806 0.027771 33.5653 0.0711091 34.0278 0.158054C34.4903 0.24472 34.9 0.349712 35.2542 0.472628C35.6083 0.595684 35.9806 0.787351 36.3722 1.04777C36.7625 1.30818 37.0847 1.53236 37.3375 1.72055C37.5903 1.90861 37.9014 2.1943 38.2708 2.57763C38.6389 2.9611 38.9208 3.26486 39.1167 3.48916C39.3125 3.71333 39.6083 4.06055 40.0069 4.53083C40.4042 5.00097 40.7042 5.3518 40.9069 5.58333H48.6111C48.9875 5.58333 49.3125 5.72082 49.5875 5.99568C49.8625 6.27055 50 6.5961 50 6.97222Z" fill="#FF6F00"/>
</g>
</svg>
